<?plantuml 1.2026.2?><svg xmlns="http://www.w3.org/2000/svg" xmlns:xlink="http://www.w3.org/1999/xlink" contentStyleType="text/css" data-diagram-type="DESCRIPTION" height="1863px" preserveAspectRatio="none" style="width:918px;height:1863px;background:#FFFFFF;" version="1.1" viewBox="0 0 918 1863" width="918px" zoomAndPan="magnify"><defs/><g><!--cluster H? th?ng qu?n l? kinh doanh ? t? ?? qua s? d?ng--><g class="cluster" data-qualified-name="H. th.ng qu.n l. kinh doanh . t. .. qua s. d.ng" data-source-line="11" id="ent0007"><rect fill="none" height="1850" rx="2.5" ry="2.5" style="stroke:#181818;stroke-width:1;" width="530" x="220" y="7"/><text fill="#000000" font-family="sans-serif" font-size="14" font-weight="bold" lengthAdjust="spacing" textLength="390.5918" x="289.7041" y="21.9951">H&#7879; th&#7889;ng qu&#7843;n l&#253; kinh doanh &#244; t&#244; &#273;&#227; qua s&#7917; d&#7909;ng</text></g><!--entity UC01--><g class="entity" data-qualified-name="H. th.ng qu.n l. kinh doanh . t. .. qua s. d.ng.UC01" data-source-line="12" id="ent0008"><ellipse cx="348.789" cy="148.1509" fill="#F1F1F1" rx="83.789" ry="23.6509" style="stroke:#181818;stroke-width:0.5;"/><text fill="#000000" font-family="sans-serif" font-size="14" lengthAdjust="spacing" textLength="42.8887" x="327.3447" y="141.0377">UC-01</text><text fill="#000000" font-family="sans-serif" font-size="14" lengthAdjust="spacing" textLength="127.5107" x="285.0337" y="157.3345">Xem danh m&#7909;c xe</text></g><!--entity UC02--><g class="entity" data-qualified-name="H. th.ng qu.n l. kinh doanh . t. .. qua s. d.ng.UC02" data-source-line="13" id="ent0009"><ellipse cx="348.9172" cy="230.1573" fill="#F1F1F1" rx="82.9172" ry="23.6573" style="stroke:#181818;stroke-width:0.5;"/><text fill="#000000" font-family="sans-serif" font-size="14" lengthAdjust="spacing" textLength="42.8887" x="327.4729" y="223.0545">UC-02</text><text fill="#000000" font-family="sans-serif" font-size="14" lengthAdjust="spacing" textLength="126.0957" x="285.8694" y="239.3513">T&#236;m ki&#7871;m &amp; l&#7885;c xe</text></g><!--entity UC03--><g class="entity" data-qualified-name="H. th.ng qu.n l. kinh doanh . t. .. qua s. d.ng.UC03" data-source-line="14" id="ent0010"><ellipse cx="349.0935" cy="312.7779" fill="#F1F1F1" rx="70.5935" ry="23.7779" style="stroke:#181818;stroke-width:0.5;"/><text fill="#000000" font-family="sans-serif" font-size="14" lengthAdjust="spacing" textLength="42.8887" x="327.6492" y="305.8703">UC-03</text><text fill="#000000" font-family="sans-serif" font-size="14" lengthAdjust="spacing" textLength="106.0322" x="296.0774" y="322.1671">Xem chi ti&#7871;t xe</text></g><!--entity UC04--><g class="entity" data-qualified-name="H. th.ng qu.n l. kinh doanh . t. .. qua s. d.ng.UC04" data-source-line="15" id="ent0011"><ellipse cx="349.0207" cy="66.1493" fill="#F1F1F1" rx="84.0207" ry="23.6493" style="stroke:#181818;stroke-width:0.5;"/><text fill="#000000" font-family="sans-serif" font-size="14" lengthAdjust="spacing" textLength="42.8887" x="327.5764" y="59.0333">UC-04</text><text fill="#000000" font-family="sans-serif" font-size="14" lengthAdjust="spacing" textLength="127.8867" x="285.0774" y="75.3302">&#272;&#259;ng k&#253; t&#224;i kho&#7843;n</text></g><!--entity UC05--><g class="entity" data-qualified-name="H. th.ng qu.n l. kinh doanh . t. .. qua s. d.ng.UC05" data-source-line="16" id="ent0012"><ellipse cx="349.1825" cy="395.8328" fill="#F1F1F1" rx="66.6825" ry="23.8328" style="stroke:#181818;stroke-width:0.5;"/><text fill="#000000" font-family="sans-serif" font-size="14" lengthAdjust="spacing" textLength="42.8887" x="327.7382" y="389.0135">UC-05</text><text fill="#000000" font-family="sans-serif" font-size="14" lengthAdjust="spacing" textLength="99.6338" x="299.3656" y="405.3104">Li&#234;n h&#7879; nhanh</text></g><!--entity UC06--><g class="entity" data-qualified-name="H. th.ng qu.n l. kinh doanh . t. .. qua s. d.ng.UC06" data-source-line="17" id="ent0013"><ellipse cx="348.7969" cy="885.0594" fill="#F1F1F1" rx="105.7969" ry="23.5594" style="stroke:#181818;stroke-width:0.5;"/><text fill="#000000" font-family="sans-serif" font-size="14" lengthAdjust="spacing" textLength="42.8887" x="327.3525" y="877.7492">UC-06</text><text fill="#000000" font-family="sans-serif" font-size="14" lengthAdjust="spacing" textLength="163.3311" x="267.1314" y="894.0461">&#272;&#259;ng nh&#7853;p / &#272;&#259;ng xu&#7845;t</text></g><!--entity UC07--><g class="entity" data-qualified-name="H. th.ng qu.n l. kinh doanh . t. .. qua s. d.ng.UC07" data-source-line="18" id="ent0014"><ellipse cx="349.0545" cy="478.7599" fill="#F1F1F1" rx="72.0545" ry="23.7599" style="stroke:#181818;stroke-width:0.5;"/><text fill="#000000" font-family="sans-serif" font-size="14" lengthAdjust="spacing" textLength="42.8887" x="327.6102" y="471.8233">UC-07</text><text fill="#000000" font-family="sans-serif" font-size="14" lengthAdjust="spacing" textLength="108.418" x="294.8456" y="488.1201">Qu&#234;n m&#7853;t kh&#7849;u</text></g><!--entity UC08--><g class="entity" data-qualified-name="H. th.ng qu.n l. kinh doanh . t. .. qua s. d.ng.UC08" data-source-line="19" id="ent0015"><ellipse cx="348.9693" cy="1233.0875" fill="#F1F1F1" rx="94.4693" ry="23.5875" style="stroke:#181818;stroke-width:0.5;"/><text fill="#000000" font-family="sans-serif" font-size="14" lengthAdjust="spacing" textLength="42.8887" x="327.525" y="1225.8707">UC-08</text><text fill="#000000" font-family="sans-serif" font-size="14" lengthAdjust="spacing" textLength="144.8125" x="276.563" y="1242.1675">Qu&#7843;n l&#253; xe y&#234;u th&#237;ch</text></g><!--entity UC09--><g class="entity" data-qualified-name="H. th.ng qu.n l. kinh doanh . t. .. qua s. d.ng.UC09" data-source-line="20" id="ent0016"><ellipse cx="348.8652" cy="1050.173" fill="#F1F1F1" rx="111.3652" ry="24.673" style="stroke:#181818;stroke-width:0.5;"/><text fill="#000000" font-family="sans-serif" font-size="14" lengthAdjust="spacing" textLength="42.8887" x="327.4209" y="1041.7255">UC-09</text><text fill="#000000" font-family="sans-serif" font-size="14" lengthAdjust="spacing" textLength="184.6387" x="256.5459" y="1058.0223">&#272;&#7863;t c&#7885;c &amp; h&#7865;n l&#7883;ch xem xe</text></g><!--entity UC10--><g class="entity" data-qualified-name="H. th.ng qu.n l. kinh doanh . t. .. qua s. d.ng.UC10" data-source-line="21" id="ent0017"><ellipse cx="349.2006" cy="562.0487" fill="#F1F1F1" rx="103.7006" ry="23.5487" style="stroke:#181818;stroke-width:0.5;"/><text fill="#000000" font-family="sans-serif" font-size="14" lengthAdjust="spacing" textLength="42.8887" x="327.7563" y="554.7682">UC-10</text><text fill="#000000" font-family="sans-serif" font-size="14" lengthAdjust="spacing" textLength="159.7285" x="269.3364" y="571.0651">Thanh to&#225;n c&#7885;c gi&#7843; l&#7853;p</text></g><!--entity UC11--><g class="entity" data-qualified-name="H. th.ng qu.n l. kinh doanh . t. .. qua s. d.ng.UC11" data-source-line="22" id="ent0018"><ellipse cx="348.7813" cy="1150.0563" fill="#F1F1F1" rx="108.2813" ry="24.0563" style="stroke:#181818;stroke-width:0.5;"/><text fill="#000000" font-family="sans-serif" font-size="14" lengthAdjust="spacing" textLength="42.8887" x="327.3369" y="1142.2383">UC-11</text><text fill="#000000" font-family="sans-serif" font-size="14" lengthAdjust="spacing" textLength="173.168" x="262.1973" y="1158.5352">Xem bi&#234;n lai &amp; h&#7907;p &#273;&#7891;ng</text></g><!--entity UC12--><g class="entity" data-qualified-name="H. th.ng qu.n l. kinh doanh . t. .. qua s. d.ng.UC12" data-source-line="23" id="ent0019"><ellipse cx="348.8622" cy="967.093" fill="#F1F1F1" rx="93.3622" ry="23.593" style="stroke:#181818;stroke-width:0.5;"/><text fill="#000000" font-family="sans-serif" font-size="14" lengthAdjust="spacing" textLength="42.8887" x="327.4178" y="959.8852">UC-12</text><text fill="#000000" font-family="sans-serif" font-size="14" lengthAdjust="spacing" textLength="143.0215" x="277.3514" y="976.182">Xem &#273;&#417;n c&#7885;c c&#7911;a t&#244;i</text></g><!--entity UC13--><g class="entity" data-qualified-name="H. th.ng qu.n l. kinh doanh . t. .. qua s. d.ng.UC13" data-source-line="24" id="ent0020"><ellipse cx="349.0867" cy="1317.0173" fill="#F1F1F1" rx="113.0867" ry="25.0173" style="stroke:#181818;stroke-width:0.5;"/><text fill="#000000" font-family="sans-serif" font-size="14" lengthAdjust="spacing" textLength="42.8887" x="327.6424" y="1308.2186">UC-13</text><text fill="#000000" font-family="sans-serif" font-size="14" lengthAdjust="spacing" textLength="190.7363" x="253.7185" y="1324.5155">Qu&#7843;n l&#253; l&#7883;ch h&#7865;n showroom</text></g><!--entity UC14--><g class="entity" data-qualified-name="H. th.ng qu.n l. kinh doanh . t. .. qua s. d.ng.UC14" data-source-line="25" id="ent0021"><ellipse cx="349.2382" cy="1401.1476" fill="#F1F1F1" rx="106.2382" ry="23.6476" style="stroke:#181818;stroke-width:0.5;"/><text fill="#000000" font-family="sans-serif" font-size="14" lengthAdjust="spacing" textLength="42.8887" x="327.7939" y="1393.7472">UC-14</text><text fill="#000000" font-family="sans-serif" font-size="14" lengthAdjust="spacing" textLength="165.1221" x="266.6772" y="1410.0441">Check-in kh&#225;ch / l&#225;i th&#7917;</text></g><!--entity UC15--><g class="entity" data-qualified-name="H. th.ng qu.n l. kinh doanh . t. .. qua s. d.ng.UC15" data-source-line="26" id="ent0022"><ellipse cx="349.1604" cy="1484.0321" fill="#F1F1F1" rx="110.6604" ry="24.5321" style="stroke:#181818;stroke-width:0.5;"/><text fill="#000000" font-family="sans-serif" font-size="14" lengthAdjust="spacing" textLength="42.8887" x="327.7161" y="1475.7283">UC-15</text><text fill="#000000" font-family="sans-serif" font-size="14" lengthAdjust="spacing" textLength="182.082" x="258.1194" y="1492.0252">H&#7895; tr&#7907; ti&#7871;p nh&#7853;n ho&#224;n c&#7885;c</text></g><!--entity UC16--><g class="entity" data-qualified-name="H. th.ng qu.n l. kinh doanh . t. .. qua s. d.ng.UC16" data-source-line="27" id="ent0023"><ellipse cx="349.1238" cy="1567.0454" fill="#F1F1F1" rx="104.6238" ry="23.5454" style="stroke:#181818;stroke-width:0.5;"/><text fill="#000000" font-family="sans-serif" font-size="14" lengthAdjust="spacing" textLength="42.8887" x="327.6795" y="1559.7595">UC-16</text><text fill="#000000" font-family="sans-serif" font-size="14" lengthAdjust="spacing" textLength="161.2188" x="268.5145" y="1576.0564">Qu&#7843;n l&#253; kho xe (CRUD)</text></g><!--entity UC17--><g class="entity" data-qualified-name="H. th.ng qu.n l. kinh doanh . t. .. qua s. d.ng.UC17" data-source-line="28" id="ent0024"><ellipse cx="349.0195" cy="1649.1681" fill="#F1F1F1" rx="81.5195" ry="23.6681" style="stroke:#181818;stroke-width:0.5;"/><text fill="#000000" font-family="sans-serif" font-size="14" lengthAdjust="spacing" textLength="42.8887" x="327.5752" y="1642.0826">UC-17</text><text fill="#000000" font-family="sans-serif" font-size="14" lengthAdjust="spacing" textLength="123.8262" x="287.1064" y="1658.3795">Qu&#7843;n l&#253; t&#224;i kho&#7843;n</text></g><!--entity UC18--><g class="entity" data-qualified-name="H. th.ng qu.n l. kinh doanh . t. .. qua s. d.ng.UC18" data-source-line="29" id="ent0025"><ellipse cx="348.796" cy="1732.7592" fill="#F1F1F1" rx="111.796" ry="24.7592" style="stroke:#181818;stroke-width:0.5;"/><text fill="#000000" font-family="sans-serif" font-size="14" lengthAdjust="spacing" textLength="42.8887" x="327.3517" y="1724.2237">UC-18</text><text fill="#000000" font-family="sans-serif" font-size="14" lengthAdjust="spacing" textLength="186.1836" x="255.7042" y="1740.5206">Qu&#7843;n l&#253; ledger &amp; ho&#224;n c&#7885;c</text></g><!--entity UC19--><g class="entity" data-qualified-name="H. th.ng qu.n l. kinh doanh . t. .. qua s. d.ng.UC19" data-source-line="30" id="ent0026"><ellipse cx="349.1106" cy="1817.1754" fill="#F1F1F1" rx="80.6106" ry="23.6754" style="stroke:#181818;stroke-width:0.5;"/><text fill="#000000" font-family="sans-serif" font-size="14" lengthAdjust="spacing" textLength="42.8887" x="327.6663" y="1810.1018">UC-19</text><text fill="#000000" font-family="sans-serif" font-size="14" lengthAdjust="spacing" textLength="122.3496" x="287.9358" y="1826.3987">B&#225;o c&#225;o th&#7889;ng k&#234;</text></g><!--entity OTP--><g class="entity" data-qualified-name="H. th.ng qu.n l. kinh doanh . t. .. qua s. d.ng.OTP" data-source-line="32" id="ent0027"><ellipse cx="349.0594" cy="807.8119" fill="#F1F1F1" rx="79.5594" ry="18.3119" style="stroke:#181818;stroke-width:0.5;"/><text fill="#000000" font-family="sans-serif" font-size="14" lengthAdjust="spacing" textLength="129.6367" x="284.2411" y="812.4603">G&#7917;i / x&#225;c th&#7921;c OTP</text></g><!--entity QR--><g class="entity" data-qualified-name="H. th.ng qu.n l. kinh doanh . t. .. qua s. d.ng.QR" data-source-line="33" id="ent0028"><ellipse cx="628.6387" cy="605.0277" fill="#F1F1F1" rx="105.6387" ry="23.5277" style="stroke:#181818;stroke-width:0.5;"/><text fill="#000000" font-family="sans-serif" font-size="14" lengthAdjust="spacing" textLength="188.4121" x="534.4327" y="609.6762">Sinh QR / reference gi&#7843; l&#7853;p</text></g><!--entity Guest--><g class="entity" data-qualified-name="Guest" data-source-line="5" id="ent0002"><ellipse cx="57.543" cy="262.5" fill="#F1F1F1" rx="16" ry="16" style="stroke:#181818;stroke-width:0.5;"/><path d="M57.543,282.5 C61.543,282.5 64.543,282.5 68.543,278.5 C76.543,278.5 84.543,286.5 84.543,294.5 L84.543,298.5 C84.543,302.5 80.543,306.5 76.543,306.5 L38.543,306.5 C34.543,306.5 30.543,302.5 30.543,298.5 L30.543,294.5 C30.543,286.5 38.543,278.5 46.543,278.5 C50.543,282.5 53.543,282.5 57.543,282.5" fill="#F1F1F1" style="stroke:#181818;stroke-width:0.5;"/><text fill="#000000" font-family="sans-serif" font-size="14" lengthAdjust="spacing" textLength="103.0859" x="6" y="319.9951">Kh&#225;ch v&#227;ng lai</text><text fill="#000000" font-family="sans-serif" font-size="14" lengthAdjust="spacing" textLength="52.042" x="6" y="336.292">(Guest)</text></g><!--entity Customer--><g class="entity" data-qualified-name="Customer" data-source-line="6" id="ent0003"><ellipse cx="57.5283" cy="595.5" fill="#F1F1F1" rx="16" ry="16" style="stroke:#181818;stroke-width:0.5;"/><path d="M57.5283,615.5 C61.5283,615.5 64.5283,615.5 68.5283,611.5 C76.5283,611.5 84.5283,619.5 84.5283,627.5 L84.5283,631.5 C84.5283,635.5 80.5283,639.5 76.5283,639.5 L38.5283,639.5 C34.5283,639.5 30.5283,635.5 30.5283,631.5 L30.5283,627.5 C30.5283,619.5 38.5283,611.5 46.5283,611.5 C50.5283,615.5 53.5283,615.5 57.5283,615.5" fill="#F1F1F1" style="stroke:#181818;stroke-width:0.5;"/><text fill="#000000" font-family="sans-serif" font-size="14" lengthAdjust="spacing" textLength="82.8652" x="12.5" y="652.9951">Kh&#225;ch h&#224;ng</text><text fill="#000000" font-family="sans-serif" font-size="14" lengthAdjust="spacing" textLength="90.0566" x="12.5" y="669.292">(CUSTOMER)</text></g><!--entity Staff--><g class="entity" data-qualified-name="Staff" data-source-line="7" id="ent0004"><ellipse cx="57.4546" cy="1370.5" fill="#F1F1F1" rx="16" ry="16" style="stroke:#181818;stroke-width:0.5;"/><path d="M57.4546,1390.5 C61.4546,1390.5 64.4546,1390.5 68.4546,1386.5 C76.4546,1386.5 84.4546,1394.5 84.4546,1402.5 L84.4546,1406.5 C84.4546,1410.5 80.4546,1414.5 76.4546,1414.5 L38.4546,1414.5 C34.4546,1414.5 30.4546,1410.5 30.4546,1406.5 L30.4546,1402.5 C30.4546,1394.5 38.4546,1386.5 46.4546,1386.5 C50.4546,1390.5 53.4546,1390.5 57.4546,1390.5" fill="#F1F1F1" style="stroke:#181818;stroke-width:0.5;"/><text fill="#000000" font-family="sans-serif" font-size="14" lengthAdjust="spacing" textLength="70.9092" x="22" y="1427.9951">Nh&#226;n vi&#234;n</text><text fill="#000000" font-family="sans-serif" font-size="14" lengthAdjust="spacing" textLength="54.0449" x="22" y="1444.292">(STAFF)</text></g><!--entity Admin--><g class="entity" data-qualified-name="Admin" data-source-line="8" id="ent0005"><ellipse cx="57.5205" cy="1670.5" fill="#F1F1F1" rx="16" ry="16" style="stroke:#181818;stroke-width:0.5;"/><path d="M57.5205,1690.5 C61.5205,1690.5 64.5205,1690.5 68.5205,1686.5 C76.5205,1686.5 84.5205,1694.5 84.5205,1702.5 L84.5205,1706.5 C84.5205,1710.5 80.5205,1714.5 76.5205,1714.5 L38.5205,1714.5 C34.5205,1714.5 30.5205,1710.5 30.5205,1706.5 L30.5205,1702.5 C30.5205,1694.5 38.5205,1686.5 46.5205,1686.5 C50.5205,1690.5 53.5205,1690.5 57.5205,1690.5" fill="#F1F1F1" style="stroke:#181818;stroke-width:0.5;"/><text fill="#000000" font-family="sans-serif" font-size="14" lengthAdjust="spacing" textLength="91.041" x="12" y="1727.9951">Qu&#7843;n tr&#7883; vi&#234;n</text><text fill="#000000" font-family="sans-serif" font-size="14" lengthAdjust="spacing" textLength="57.9619" x="12" y="1744.292">(ADMIN)</text></g><!--entity System--><g class="entity" data-qualified-name="System" data-source-line="9" id="ent0006"><ellipse cx="854.1006" cy="673.5" fill="#F1F1F1" rx="16" ry="16" style="stroke:#181818;stroke-width:0.5;"/><path d="M854.1006,693.5 C858.1006,693.5 861.1006,693.5 865.1006,689.5 C873.1006,689.5 881.1006,697.5 881.1006,705.5 L881.1006,709.5 C881.1006,713.5 877.1006,717.5 873.1006,717.5 L835.1006,717.5 C831.1006,717.5 827.1006,713.5 827.1006,709.5 L827.1006,705.5 C827.1006,697.5 835.1006,689.5 843.1006,689.5 C847.1006,693.5 850.1006,693.5 854.1006,693.5" fill="#F1F1F1" style="stroke:#181818;stroke-width:0.5;"/><text fill="#000000" font-family="sans-serif" font-size="14" lengthAdjust="spacing" textLength="52.2061" x="797" y="730.9951">System</text><text fill="#000000" font-family="sans-serif" font-size="14" lengthAdjust="spacing" textLength="114.2012" x="797" y="747.292">(OTP / Mock QR)</text></g><!--link Guest to UC01--><g class="link" data-entity-1="ent0002" data-entity-2="ent0008" data-link-type="dependency" data-source-line="36" id="lnk29"><path d="M109.06,253.01 C137.92,231.69 175.52,206.36 212,189 C234.6,178.24 254.8854,171.1989 278.1054,164.6489" fill="none" id="Guest-to-UC01" style="stroke:#181818;stroke-width:1;"/><polygon fill="#181818" points="283.88,163.02,274.1321,161.6136,279.0678,164.3774,276.304,169.3132,283.88,163.02" style="stroke:#181818;stroke-width:1;"/></g><!--link Guest to UC02--><g class="link" data-entity-1="ent0002" data-entity-2="ent0009" data-link-type="dependency" data-source-line="37" id="lnk30"><path d="M109.16,281.61 C119.05,279.4 129.35,277.12 139,275 C186.85,264.5 235.063,254.1161 276.213,245.3061" fill="none" id="Guest-to-UC02" style="stroke:#181818;stroke-width:1;"/><polygon fill="#181818" points="282.08,244.05,272.442,242.0228,277.1908,245.0968,274.1168,249.8455,282.08,244.05" style="stroke:#181818;stroke-width:1;"/></g><!--link Guest to UC03--><g class="link" data-entity-1="ent0002" data-entity-2="ent0010" data-link-type="dependency" data-source-line="38" id="lnk31"><path d="M109.26,296.51 C156.53,299.77 221.3742,304.2575 273.6142,307.8575" fill="none" id="Guest-to-UC03" style="stroke:#181818;stroke-width:1;"/><polygon fill="#181818" points="279.6,308.27,270.8963,303.6607,274.6118,307.9263,270.3463,311.6418,279.6,308.27" style="stroke:#181818;stroke-width:1;"/></g><!--link Guest to UC04--><g class="link" data-entity-1="ent0002" data-entity-2="ent0011" data-link-type="dependency" data-source-line="39" id="lnk32"><path d="M85.12,245.88 C111.74,203.12 156.62,141.63 212,107 C232.28,94.32 250.9377,86.9615 273.4677,80.7215" fill="none" id="Guest-to-UC04" style="stroke:#181818;stroke-width:1;"/><polygon fill="#181818" points="279.25,79.12,269.5089,77.6674,274.4314,80.4546,271.6442,85.3771,279.25,79.12" style="stroke:#181818;stroke-width:1;"/></g><!--link Guest to UC05--><g class="link" data-entity-1="ent0002" data-entity-2="ent0012" data-link-type="dependency" data-source-line="40" id="lnk33"><path d="M109.29,314.35 C139.01,326.55 177.38,341.8 212,354 C239.73,363.78 265.3212,371.8221 290.9212,379.4721" fill="none" id="Guest-to-UC05" style="stroke:#181818;stroke-width:1;"/><polygon fill="#181818" points="296.67,381.19,289.1921,374.7806,291.8793,379.7584,286.9015,382.4457,296.67,381.19" style="stroke:#181818;stroke-width:1;"/></g><!--link Guest to UC06--><g class="link" data-entity-1="ent0002" data-entity-2="ent0013" data-link-type="dependency" data-source-line="41" id="lnk34"><path d="M86.54,340.02 C127.04,408.35 197.76,529.41 204,552 C208.32,567.64 202.14,831.11 212,844 C222.86,858.2 232.8461,865.559 249.6561,871.809" fill="none" id="Guest-to-UC06" style="stroke:#181818;stroke-width:1;"/><polygon fill="#181818" points="255.28,873.9,248.2382,867.0143,250.5934,872.1575,245.4502,874.5128,255.28,873.9" style="stroke:#181818;stroke-width:1;"/></g><!--link Guest to UC07--><g class="link" data-entity-1="ent0002" data-entity-2="ent0014" data-link-type="dependency" data-source-line="42" id="lnk35"><path d="M109.35,331.44 C119.13,338.68 129.34,346.13 139,353 C167.44,373.21 184.69,367.95 204,397 C214.03,412.1 199.85,423.54 212,437 C229.3,456.17 249.2974,465.3247 273.8174,471.0547" fill="none" id="Guest-to-UC07" style="stroke:#181818;stroke-width:1;"/><polygon fill="#181818" points="279.66,472.42,271.8063,466.4769,274.7912,471.2822,269.9859,474.2671,279.66,472.42" style="stroke:#181818;stroke-width:1;"/></g><!--link Customer to UC06--><g class="link" data-entity-1="ent0003" data-entity-2="ent0013" data-link-type="dependency" data-source-line="44" id="lnk36"><path d="M102.74,593.38 C134.77,574 177.01,557.83 204,584 C224.75,604.12 194.41,821.07 212,844 C222.88,858.19 232.8861,865.529 249.6961,871.779" fill="none" id="Customer-to-UC06" style="stroke:#181818;stroke-width:1;"/><polygon fill="#181818" points="255.32,873.87,248.2782,866.9843,250.6334,872.1275,245.4902,874.4828,255.32,873.87" style="stroke:#181818;stroke-width:1;"/></g><!--link Customer to UC07--><g class="link" data-entity-1="ent0003" data-entity-2="ent0014" data-link-type="dependency" data-source-line="45" id="lnk37"><path d="M80,578.82 C93.48,554.65 113.23,527.01 139,511 C180.16,485.43 228.4435,477.9254 271.3635,476.4554" fill="none" id="Customer-to-UC07" style="stroke:#181818;stroke-width:1;"/><polygon fill="#181818" points="277.36,476.25,268.2284,472.5604,272.3629,476.4211,268.5022,480.5557,277.36,476.25" style="stroke:#181818;stroke-width:1;"/></g><!--link Customer to UC08--><g class="link" data-entity-1="ent0003" data-entity-2="ent0015" data-link-type="dependency" data-source-line="46" id="lnk38"><path d="M91.25,673.02 C104.91,690.96 121.63,710.94 139,727 C164.61,750.69 187.36,740.34 204,771 C215.14,791.51 197.97,1172.35 212,1191 C224.26,1207.29 237.0311,1215.5939 256.4511,1221.8739" fill="none" id="Customer-to-UC08" style="stroke:#181818;stroke-width:1;"/><polygon fill="#181818" points="262.16,1223.72,254.8274,1217.1448,257.4026,1222.1816,252.3659,1224.7567,262.16,1223.72" style="stroke:#181818;stroke-width:1;"/></g><!--link Customer to UC09--><g class="link" data-entity-1="ent0003" data-entity-2="ent0016" data-link-type="dependency" data-source-line="47" id="lnk39"><path d="M102.63,639.3 C140.92,651.83 192.03,671.26 204,689 C223.83,718.39 190.59,979.74 212,1008 C222.37,1021.69 231.5551,1028.8219 247.5651,1035.1919" fill="none" id="Customer-to-UC09" style="stroke:#181818;stroke-width:1;"/><polygon fill="#181818" points="253.14,1037.41,246.2564,1030.3662,248.4942,1035.5616,243.2988,1037.7994,253.14,1037.41" style="stroke:#181818;stroke-width:1;"/></g><!--link Customer to UC10--><g class="link" data-entity-1="ent0003" data-entity-2="ent0017" data-link-type="dependency" data-source-line="48" id="lnk40"><path d="M91.94,578.94 C104.84,564.63 120.88,550.67 139,543 C187.32,522.55 241.6078,529.5921 284.9378,541.0021" fill="none" id="Customer-to-UC10" style="stroke:#181818;stroke-width:1;"/><polygon fill="#181818" points="290.74,542.53,283.0553,536.37,285.9048,541.2568,281.0181,544.1063,290.74,542.53" style="stroke:#181818;stroke-width:1;"/></g><!--link Customer to UC11--><g class="link" data-entity-1="ent0003" data-entity-2="ent0018" data-link-type="dependency" data-source-line="49" id="lnk41"><path d="M102.52,659.37 C114.29,668.14 127.06,677.52 139,686 C167.44,706.21 187.31,699.37 204,730 C213.62,747.66 200.73,1075.34 212,1092 C225.45,1111.88 241.6265,1122.7991 263.8365,1131.4191" fill="none" id="Customer-to-UC11" style="stroke:#181818;stroke-width:1;"/><polygon fill="#181818" points="269.43,1133.59,262.487,1126.6046,264.7688,1131.7809,259.5925,1134.0626,269.43,1133.59" style="stroke:#181818;stroke-width:1;"/></g><!--link Customer to UC12--><g class="link" data-entity-1="ent0003" data-entity-2="ent0019" data-link-type="dependency" data-source-line="50" id="lnk42"><path d="M102.65,619.2 C135.73,616.87 179.36,620.17 204,648 C224.49,671.14 193.22,901.46 212,926 C224.29,942.06 236.9432,950.2083 256.2432,956.3583" fill="none" id="Customer-to-UC12" style="stroke:#181818;stroke-width:1;"/><polygon fill="#181818" points="261.96,958.18,254.5993,951.6363,257.196,956.6619,252.1704,959.2587,261.96,958.18" style="stroke:#181818;stroke-width:1;"/></g><!--link Staff to UC13--><g class="link" data-entity-1="ent0004" data-entity-2="ent0020" data-link-type="dependency" data-source-line="52" id="lnk43"><path d="M93.27,1389.42 C107.42,1384.8 123.95,1379.52 139,1375 C184.44,1361.36 229.9894,1348.6712 270.4194,1337.7012" fill="none" id="Staff-to-UC13" style="stroke:#181818;stroke-width:1;"/><polygon fill="#181818" points="276.21,1336.13,266.4766,1334.6264,271.3845,1337.4393,268.5715,1342.3472,276.21,1336.13" style="stroke:#181818;stroke-width:1;"/></g><!--link Staff to UC14--><g class="link" data-entity-1="ent0004" data-entity-2="ent0021" data-link-type="dependency" data-source-line="53" id="lnk44"><path d="M93.13,1401 C130.05,1401 184.33,1401 237,1401" fill="none" id="Staff-to-UC14" style="stroke:#181818;stroke-width:1;"/><polygon fill="#181818" points="243,1401,234,1397,238,1401,234,1405,243,1401" style="stroke:#181818;stroke-width:1;"/></g><!--link Staff to UC15--><g class="link" data-entity-1="ent0004" data-entity-2="ent0022" data-link-type="dependency" data-source-line="54" id="lnk45"><path d="M93.13,1410.93 C139.28,1424.16 216.1622,1446.2071 274.8222,1463.0171" fill="none" id="Staff-to-UC15" style="stroke:#181818;stroke-width:1;"/><polygon fill="#181818" points="280.59,1464.67,273.0401,1458.3455,275.7835,1463.2926,270.8363,1466.0359,280.59,1464.67" style="stroke:#181818;stroke-width:1;"/></g><!--link Admin to UC16--><g class="link" data-entity-1="ent0005" data-entity-2="ent0023" data-link-type="dependency" data-source-line="56" id="lnk46"><path d="M103.2,1669.77 C132.98,1650.03 173.57,1625.1 212,1608 C232.95,1598.67 250.8723,1592.398 272.5323,1586.048" fill="none" id="Admin-to-UC16" style="stroke:#181818;stroke-width:1;"/><polygon fill="#181818" points="278.29,1584.36,268.5282,1583.0535,273.4919,1585.7666,270.7788,1590.7304,278.29,1584.36" style="stroke:#181818;stroke-width:1;"/></g><!--link Admin to UC17--><g class="link" data-entity-1="ent0005" data-entity-2="ent0024" data-link-type="dependency" data-source-line="57" id="lnk47"><path d="M103.1,1692.99 C150.13,1684.54 218.9146,1672.1911 273.4546,1662.3911" fill="none" id="Admin-to-UC17" style="stroke:#181818;stroke-width:1;"/><polygon fill="#181818" points="279.36,1661.33,269.7945,1658.9847,274.4388,1662.2143,271.2093,1666.8586,279.36,1661.33" style="stroke:#181818;stroke-width:1;"/></g><!--link Admin to UC18--><g class="link" data-entity-1="ent0005" data-entity-2="ent0025" data-link-type="dependency" data-source-line="58" id="lnk48"><path d="M103.1,1705.93 C141.64,1710.19 192.7963,1715.8407 242.1863,1721.3007" fill="none" id="Admin-to-UC18" style="stroke:#181818;stroke-width:1;"/><polygon fill="#181818" points="248.15,1721.96,239.644,1716.9953,243.1803,1721.4106,238.765,1724.9469,248.15,1721.96" style="stroke:#181818;stroke-width:1;"/></g><!--link Admin to UC19--><g class="link" data-entity-1="ent0005" data-entity-2="ent0026" data-link-type="dependency" data-source-line="59" id="lnk49"><path d="M103.05,1724.67 C133.27,1740.17 174.41,1760.23 212,1775 C236.95,1784.8 259.4358,1792.1403 283.6758,1799.3003" fill="none" id="Admin-to-UC19" style="stroke:#181818;stroke-width:1;"/><polygon fill="#181818" points="289.43,1801,281.9318,1794.6143,284.6348,1799.5836,279.6655,1802.2866,289.43,1801" style="stroke:#181818;stroke-width:1;"/></g><!--link UC04 to OTP--><g class="link" data-entity-1="ent0011" data-entity-2="ent0027" data-link-type="dependency" data-source-line="61" id="lnk50"><path d="M269.58,73.85 C248.02,79.81 226.61,89.93 212,107 C122.07,212.01 157.5,278 172,415.5 C180.94,500.24 178.85,524.51 212,603 C243.81,678.32 300.5661,750.7614 329.2861,785.0314" fill="none" id="UC04-to-OTP" style="stroke:#181818;stroke-width:1;stroke-dasharray:7,7;"/><polygon fill="#181818" points="333.14,789.63,330.4249,780.1628,329.9284,785.7978,324.2934,785.3013,333.14,789.63" style="stroke:#181818;stroke-width:1;"/><text fill="#000000" font-family="sans-serif" font-size="13" lengthAdjust="spacing" textLength="63.0068" x="140" y="411.5669">&#171;include&#187;</text></g><!--link UC07 to OTP--><g class="link" data-entity-1="ent0014" data-entity-2="ent0027" data-link-type="dependency" data-source-line="62" id="lnk51"><path d="M279.41,485.18 C254.77,490.88 228.97,501.47 212,521 C121.77,624.81 165.52,782.31 172,789.5 C200.44,821.06 243.4208,824.6673 282.6408,820.6773" fill="none" id="UC07-to-OTP" style="stroke:#181818;stroke-width:1;stroke-dasharray:7,7;"/><polygon fill="#181818" points="288.61,820.07,279.2514,817.0014,283.6357,820.5761,280.0611,824.9604,288.61,820.07" style="stroke:#181818;stroke-width:1;"/><text fill="#000000" font-family="sans-serif" font-size="13" lengthAdjust="spacing" textLength="63.0068" x="140" y="785.5669">&#171;include&#187;</text></g><!--link UC09 to UC10--><g class="link" data-entity-1="ent0016" data-entity-2="ent0017" data-link-type="dependency" data-source-line="63" id="lnk52"><path d="M254.24,1036.91 C238.05,1030.59 222.95,1021.38 212,1008 C152.27,935.01 109.86,656.44 172,585.5 C192.73,561.83 218.8594,553.5759 250.0694,551.8259" fill="none" id="UC09-to-UC10" style="stroke:#181818;stroke-width:1;stroke-dasharray:7,7;"/><polygon fill="#181818" points="256.06,551.49,246.8502,548.0001,251.0678,551.7699,247.2981,555.9876,256.06,551.49" style="stroke:#181818;stroke-width:1;"/><text fill="#000000" font-family="sans-serif" font-size="13" lengthAdjust="spacing" textLength="63.0068" x="140" y="598.5669">&#171;include&#187;</text></g><!--link UC09 to UC11--><g class="link" data-entity-1="ent0016" data-entity-2="ent0018" data-link-type="dependency" data-source-line="64" id="lnk53"><path d="M349,1074.68 C349,1090.26 349,1104.3 349,1119.79" fill="none" id="UC09-to-UC11" style="stroke:#181818;stroke-width:1;stroke-dasharray:7,7;"/><polygon fill="#181818" points="349,1125.79,353,1116.79,349,1120.79,345,1116.79,349,1125.79" style="stroke:#181818;stroke-width:1;"/><text fill="#000000" font-family="sans-serif" font-size="13" lengthAdjust="spacing" textLength="63.0068" x="306" y="1104.8169">&#171;include&#187;</text></g><!--link UC10 to QR--><g class="link" data-entity-1="ent0017" data-entity-2="ent0028" data-link-type="dependency" data-source-line="65" id="lnk54"><path d="M435.15,575.19 C468.92,580.43 501.7806,585.5221 535.6306,590.7621" fill="none" id="UC10-to-QR" style="stroke:#181818;stroke-width:1;"/><polygon fill="#181818" points="541.56,591.68,533.2778,586.3503,536.6189,590.9151,532.054,594.2561,541.56,591.68" style="stroke:#181818;stroke-width:1;"/></g><!--link OTP to System--><g class="link" data-entity-1="ent0027" data-entity-2="ent0006" data-link-type="dependency" data-source-line="66" id="lnk55"><path d="M409.18,795.76 C506.95,775.55 695.0443,736.6548 790.8643,716.8448" fill="none" id="OTP-to-System" style="stroke:#181818;stroke-width:1;"/><polygon fill="#181818" points="796.74,715.63,787.1165,713.535,791.8435,716.6423,788.7362,721.3693,796.74,715.63" style="stroke:#181818;stroke-width:1;"/></g><!--link QR to System--><g class="link" data-entity-1="ent0028" data-entity-2="ent0006" data-link-type="dependency" data-source-line="67" id="lnk56"><path d="M676.9,626 C712.01,641.55 754.4844,660.3592 791.4944,676.7592" fill="none" id="QR-to-System" style="stroke:#181818;stroke-width:1;"/><polygon fill="#181818" points="796.98,679.19,790.3722,671.8868,792.4087,677.1644,787.1311,679.2009,796.98,679.19" style="stroke:#181818;stroke-width:1;"/></g><?plantuml-src TLLDRzD04BtxLunogDf3Q9ple2fIIIaWQ4k-90wv66TZMx7NmTwqgH0d3Xmg92eEN1kY2b6H0n8I8X7Yu8Z_uN_2h9rDumqznF7ilBUpC_DcRPCU0-Q2PnacWwxb4PrPBbNylaK7cgSvCD3qlcQG9Zkt2N2tHWsRh04qdRbUxDREYEywH56YDKWzDOEnRi9fCA46s9hLeTkFXiHdEodGV8XU9QWPN543ORLsitLozB0H8sj3d-6-dW0Vcy5d2gTMS4CHsspj7nx6m2RJUZs1gW_3sOG2yyBvnGgyVt3qv3W6xtSTYmfmyzndn470IUivxCAHg_UXlWmV-nHbbJsa7eVpTy3CS7w9cRsA0zd1Ry2gcD1rDNm6Fu3XRt4PJ12XWH_Efz0DvzVKIC5h1M3e4rtpSRDsBPrHE_G5SQ3BcGw2T1YHA7Yxbb5bSBP3My4t1wE5ipyER84Tpj-lCx8o8nTlhviMC4vYQ-2S3CvtwEB3uYrcriUKM71bGTzqUOw2afSfXGvznYiC9YyCDJ4DWIt8sE9gUsg6i-a0oxsqHrZ8QoQ8HPbOwj3wa0TnaCRmJE7iwr2WIpAwpD6hnem8d0StG-nPCDLNPolBf0e_MpZxoK2FIhg52Sr-KLxW2vJd26juMxYAn5Ops1UUEavKCARBBGoizmGtm4oNH3KZ4vVTVncL40SbYZkV350zuVmZ5qnCb9MWPcFYulBlAXu-lsXSUfPWoMfGSudIB7EB4_LDzynpNKTmPN6eA8wQIVH-sgBOWMXeTt6RiHMDmrJmP8Meg10Sca_HE4vY4GvY0Q1eN1px-FY2Bwj6BIREZ7haBTskDTe7Eu8Z2qOj9JZ_4R8ggqPDgiOcNODul1kR9vIrew9s7WHZ5tJ-47T3FxWHX8gopdY4nRAmT2CiOOJ-hWFUFH4O_zUXJNwfr1i8zaYFU8JgP4DLzORoHb6YAnNIwMfyRIJCRDBC9SryqYmapMBIB2cAk99l4V9AQMEblB5IaLTmDEGLTMCbgoZHHI_iNDBC9ys2eaGtlR2BIREKDCj94tl6YmFtghmfS1_szYogsyCkgLQvftIdfy8zFA6xNUg62z4yC3QJxybVbzyUxFwjzGy0?></g></svg>