<?plantuml 1.2026.2?><svg xmlns="http://www.w3.org/2000/svg" xmlns:xlink="http://www.w3.org/1999/xlink" contentStyleType="text/css" data-diagram-type="SEQUENCE" height="574px" preserveAspectRatio="none" style="width:1445px;height:574px;background:#FFFFFF;" version="1.1" viewBox="0 0 1445 574" width="1445px" zoomAndPan="magnify"><defs/><g><g class="participant-lifeline" data-entity-uid="part1" data-qualified-name="A" id="part1-lifeline"><g><title>Guest</title><rect fill="#000000" fill-opacity="0.00000" height="412.7266" width="8" x="24.5591" y="81.2969"/><line style="stroke:#181818;stroke-width:0.5;stroke-dasharray:5,5;" x1="28" x2="28" y1="81.2969" y2="494.0234"/></g></g><g class="participant-lifeline" data-entity-uid="part2" data-qualified-name="UI" id="part2-lifeline"><g><title>VehicleListPage</title><rect fill="#000000" fill-opacity="0.00000" height="412.7266" width="8" x="279.5313" y="81.2969"/><line style="stroke:#181818;stroke-width:0.5;stroke-dasharray:5,5;" x1="283.4575" x2="283.4575" y1="81.2969" y2="494.0234"/></g></g><g class="participant-lifeline" data-entity-uid="part3" data-qualified-name="C" id="part3-lifeline"><g><title>ListingController</title><rect fill="#000000" fill-opacity="0.00000" height="412.7266" width="8" x="531.8501" y="81.2969"/><line style="stroke:#181818;stroke-width:0.5;stroke-dasharray:5,5;" x1="535.2026" x2="535.2026" y1="81.2969" y2="494.0234"/></g></g><g class="participant-lifeline" data-entity-uid="part4" data-qualified-name="S" id="part4-lifeline"><g><title>ListingService</title><rect fill="#000000" fill-opacity="0.00000" height="412.7266" width="8" x="826.4253" y="81.2969"/><line style="stroke:#181818;stroke-width:0.5;stroke-dasharray:5,5;" x1="829.4937" x2="829.4937" y1="81.2969" y2="494.0234"/></g></g><g class="participant-lifeline" data-entity-uid="part5" data-qualified-name="SP" id="part5-lifeline"><g><title>ListingSpecification</title><rect fill="#000000" fill-opacity="0.00000" height="412.7266" width="8" x="1015.0391" y="81.2969"/><line style="stroke:#181818;stroke-width:0.5;stroke-dasharray:5,5;" x1="1019.0352" x2="1019.0352" y1="81.2969" y2="494.0234"/></g></g><g class="participant-lifeline" data-entity-uid="part6" data-qualified-name="R" id="part6-lifeline"><g><title>ListingRepository</title><rect fill="#000000" fill-opacity="0.00000" height="412.7266" width="8" x="1165.6401" y="81.2969"/><line style="stroke:#181818;stroke-width:0.5;stroke-dasharray:5,5;" x1="1169.043" x2="1169.043" y1="81.2969" y2="494.0234"/></g></g><g class="participant-lifeline" data-entity-uid="part7" data-qualified-name="DB" id="part7-lifeline"><g><title>PostgreSQL</title><rect fill="#000000" fill-opacity="0.00000" height="412.7266" width="8" x="1386.0938" y="81.2969"/><line style="stroke:#181818;stroke-width:0.5;stroke-dasharray:5,5;" x1="1389.7173" x2="1389.7173" y1="81.2969" y2="494.0234"/></g></g><g class="participant participant-head" data-entity-uid="part1" data-qualified-name="A" id="part1-head"><text fill="#000000" font-family="sans-serif" font-size="14" lengthAdjust="spacing" textLength="41.1182" x="5" y="77.9951">Guest</text><ellipse cx="28.5591" cy="13.5" fill="#E2E2F0" rx="8" ry="8" style="stroke:#181818;stroke-width:0.5;"/><path d="M28.5591,21.5 L28.5591,48.5 M15.5591,29.5 L41.5591,29.5 M28.5591,48.5 L15.5591,63.5 M28.5591,48.5 L41.5591,63.5" fill="none" style="stroke:#181818;stroke-width:0.5;"/></g><g class="participant participant-tail" data-entity-uid="part1" data-qualified-name="A" id="part1-tail"><text fill="#000000" font-family="sans-serif" font-size="14" lengthAdjust="spacing" textLength="41.1182" x="5" y="506.0186">Guest</text><ellipse cx="28.5591" cy="517.8203" fill="#E2E2F0" rx="8" ry="8" style="stroke:#181818;stroke-width:0.5;"/><path d="M28.5591,525.8203 L28.5591,552.8203 M15.5591,533.8203 L41.5591,533.8203 M28.5591,552.8203 L15.5591,567.8203 M28.5591,552.8203 L41.5591,567.8203" fill="none" style="stroke:#181818;stroke-width:0.5;"/></g><g class="participant participant-head" data-entity-uid="part2" data-qualified-name="UI" id="part2-head"><text fill="#000000" font-family="sans-serif" font-size="14" lengthAdjust="spacing" textLength="110.1475" x="225.4575" y="61.6982">VehicleListPage</text><text fill="#000000" font-family="sans-serif" font-size="14" lengthAdjust="spacing" textLength="69.8564" x="245.603" y="77.9951">(React UI)</text><path d="M263.0313,20.7031 L263.0313,44.7031 M263.0313,32.7031 L280.0313,32.7031" fill="none" style="stroke:#181818;stroke-width:0.5;"/><ellipse cx="292.0313" cy="32.7031" fill="#E2E2F0" rx="12" ry="12" style="stroke:#181818;stroke-width:0.5;"/></g><g class="participant participant-tail" data-entity-uid="part2" data-qualified-name="UI" id="part2-tail"><text fill="#000000" font-family="sans-serif" font-size="14" lengthAdjust="spacing" textLength="110.1475" x="225.4575" y="506.0186">VehicleListPage</text><text fill="#000000" font-family="sans-serif" font-size="14" lengthAdjust="spacing" textLength="69.8564" x="245.603" y="522.3154">(React UI)</text><path d="M263.0313,529.6172 L263.0313,553.6172 M263.0313,541.6172 L280.0313,541.6172" fill="none" style="stroke:#181818;stroke-width:0.5;"/><ellipse cx="292.0313" cy="541.6172" fill="#E2E2F0" rx="12" ry="12" style="stroke:#181818;stroke-width:0.5;"/></g><g class="participant participant-head" data-entity-uid="part3" data-qualified-name="C" id="part3-head"><text fill="#000000" font-family="sans-serif" font-size="14" lengthAdjust="spacing" textLength="115.2949" x="475.2026" y="77.9951">ListingController</text><ellipse cx="535.8501" cy="49" fill="#E2E2F0" rx="12" ry="12" style="stroke:#181818;stroke-width:0.5;"/><polygon fill="#181818" points="531.8501,37,537.8501,32,535.8501,37,537.8501,42,531.8501,37" style="stroke:#181818;stroke-width:1;"/></g><g class="participant participant-tail" data-entity-uid="part3" data-qualified-name="C" id="part3-tail"><text fill="#000000" font-family="sans-serif" font-size="14" lengthAdjust="spacing" textLength="115.2949" x="475.2026" y="506.0186">ListingController</text><ellipse cx="535.8501" cy="525.3203" fill="#E2E2F0" rx="12" ry="12" style="stroke:#181818;stroke-width:0.5;"/><polygon fill="#181818" points="531.8501,513.3203,537.8501,508.3203,535.8501,513.3203,537.8501,518.3203,531.8501,513.3203" style="stroke:#181818;stroke-width:1;"/></g><g class="participant participant-head" data-entity-uid="part4" data-qualified-name="S" id="part4-head"><text fill="#000000" font-family="sans-serif" font-size="14" lengthAdjust="spacing" textLength="97.8633" x="778.4937" y="77.9951">ListingService</text><ellipse cx="830.4253" cy="49" fill="#E2E2F0" rx="12" ry="12" style="stroke:#181818;stroke-width:0.5;"/><polygon fill="#181818" points="826.4253,37,832.4253,32,830.4253,37,832.4253,42,826.4253,37" style="stroke:#181818;stroke-width:1;"/></g><g class="participant participant-tail" data-entity-uid="part4" data-qualified-name="S" id="part4-tail"><text fill="#000000" font-family="sans-serif" font-size="14" lengthAdjust="spacing" textLength="97.8633" x="778.4937" y="506.0186">ListingService</text><ellipse cx="830.4253" cy="525.3203" fill="#E2E2F0" rx="12" ry="12" style="stroke:#181818;stroke-width:0.5;"/><polygon fill="#181818" points="826.4253,513.3203,832.4253,508.3203,830.4253,513.3203,832.4253,518.3203,826.4253,513.3203" style="stroke:#181818;stroke-width:1;"/></g><g class="participant participant-head" data-entity-uid="part5" data-qualified-name="SP" id="part5-head"><text fill="#000000" font-family="sans-serif" font-size="14" lengthAdjust="spacing" textLength="136.0078" x="948.0352" y="77.9951">ListingSpecification</text><ellipse cx="1019.0391" cy="49" fill="#E2E2F0" rx="12" ry="12" style="stroke:#181818;stroke-width:0.5;"/><polygon fill="#181818" points="1015.0391,37,1021.0391,32,1019.0391,37,1021.0391,42,1015.0391,37" style="stroke:#181818;stroke-width:1;"/></g><g class="participant participant-tail" data-entity-uid="part5" data-qualified-name="SP" id="part5-tail"><text fill="#000000" font-family="sans-serif" font-size="14" lengthAdjust="spacing" textLength="136.0078" x="948.0352" y="506.0186">ListingSpecification</text><ellipse cx="1019.0391" cy="525.3203" fill="#E2E2F0" rx="12" ry="12" style="stroke:#181818;stroke-width:0.5;"/><polygon fill="#181818" points="1015.0391,513.3203,1021.0391,508.3203,1019.0391,513.3203,1021.0391,518.3203,1015.0391,513.3203" style="stroke:#181818;stroke-width:1;"/></g><g class="participant participant-head" data-entity-uid="part6" data-qualified-name="R" id="part6-head"><rect fill="#E2E2F0" height="30.2969" style="stroke:#181818;stroke-width:0.5;" width="135.1943" x="1104.043" y="46"/><rect fill="#E2E2F0" height="30.2969" style="stroke:#181818;stroke-width:0.5;" width="135.1943" x="1100.043" y="50"/><text fill="#000000" font-family="sans-serif" font-size="14" lengthAdjust="spacing" textLength="121.1943" x="1107.043" y="69.9951">ListingRepository</text></g><g class="participant participant-tail" data-entity-uid="part6" data-qualified-name="R" id="part6-tail"><rect fill="#E2E2F0" height="30.2969" style="stroke:#181818;stroke-width:0.5;" width="135.1943" x="1104.043" y="493.0234"/><rect fill="#E2E2F0" height="30.2969" style="stroke:#181818;stroke-width:0.5;" width="135.1943" x="1100.043" y="497.0234"/><text fill="#000000" font-family="sans-serif" font-size="14" lengthAdjust="spacing" textLength="121.1943" x="1107.043" y="517.0186">ListingRepository</text></g><g class="participant participant-head" data-entity-uid="part7" data-qualified-name="DB" id="part7-head"><text fill="#000000" font-family="sans-serif" font-size="14" lengthAdjust="spacing" textLength="80.7529" x="1346.7173" y="77.9951">PostgreSQL</text><path d="M1372.0938,29 C1372.0938,19 1390.0938,19 1390.0938,19 C1390.0938,19 1408.0938,19 1408.0938,29 L1408.0938,55 C1408.0938,65 1390.0938,65 1390.0938,65 C1390.0938,65 1372.0938,65 1372.0938,55 L1372.0938,29" fill="#E2E2F0" style="stroke:#181818;stroke-width:0.5;"/><path d="M1372.0938,29 C1372.0938,39 1390.0938,39 1390.0938,39 C1390.0938,39 1408.0938,39 1408.0938,29" fill="none" style="stroke:#181818;stroke-width:0.5;"/></g><g class="participant participant-tail" data-entity-uid="part7" data-qualified-name="DB" id="part7-tail"><text fill="#000000" font-family="sans-serif" font-size="14" lengthAdjust="spacing" textLength="80.7529" x="1346.7173" y="506.0186">PostgreSQL</text><path d="M1372.0938,519.3203 C1372.0938,509.3203 1390.0938,509.3203 1390.0938,509.3203 C1390.0938,509.3203 1408.0938,509.3203 1408.0938,519.3203 L1408.0938,545.3203 C1408.0938,555.3203 1390.0938,555.3203 1390.0938,555.3203 C1390.0938,555.3203 1372.0938,555.3203 1372.0938,545.3203 L1372.0938,519.3203" fill="#E2E2F0" style="stroke:#181818;stroke-width:0.5;"/><path d="M1372.0938,519.3203 C1372.0938,529.3203 1390.0938,529.3203 1390.0938,529.3203 C1390.0938,529.3203 1408.0938,529.3203 1408.0938,519.3203" fill="none" style="stroke:#181818;stroke-width:0.5;"/></g><rect fill="#EEEEEE" height="3" style="stroke:#EEEEEE;stroke-width:1;" width="1438.4702" x="0" y="111.8633"/><line style="stroke:#000000;stroke-width:1;" x1="0" x2="1438.4702" y1="111.8633" y2="111.8633"/><line style="stroke:#000000;stroke-width:1;" x1="0" x2="1438.4702" y1="114.8633" y2="114.8633"/><rect fill="#EEEEEE" height="23.1328" style="stroke:#000000;stroke-width:2;" width="287.9077" x="575.2813" y="101.2969"/><text fill="#000000" font-family="sans-serif" font-size="13" font-weight="bold" lengthAdjust="spacing" textLength="269.3818" x="581.2813" y="117.3638">T&#236;m ki&#7871;m &amp; Ph&#226;n trang danh s&#225;ch xe</text><g class="message" data-entity-1="part1" data-entity-2="part2" id="msg1"><polygon fill="#181818" points="271.5313,151.5625,281.5313,155.5625,271.5313,159.5625,275.5313,155.5625" style="stroke:#181818;stroke-width:1;"/><line style="stroke:#181818;stroke-width:1;" x1="28.5591" x2="277.5313" y1="155.5625" y2="155.5625"/><text fill="#000000" font-family="sans-serif" font-size="13" lengthAdjust="spacing" textLength="144.8726" x="35.5591" y="150.4966">1. Nh&#7853;p keyword/filter</text></g><g class="message" data-entity-1="part2" data-entity-2="part3" id="msg2"><polygon fill="#181818" points="523.8501,180.6953,533.8501,184.6953,523.8501,188.6953,527.8501,184.6953" style="stroke:#181818;stroke-width:1;"/><line style="stroke:#181818;stroke-width:1;" x1="283.5313" x2="529.8501" y1="184.6953" y2="184.6953"/><text fill="#000000" font-family="sans-serif" font-size="13" lengthAdjust="spacing" textLength="228.3188" x="290.5313" y="179.6294">2. GET /api/v1/listings?filters&amp;page</text></g><g class="message" data-entity-1="part3" data-entity-2="part4" id="msg3"><polygon fill="#181818" points="818.4253,209.8281,828.4253,213.8281,818.4253,217.8281,822.4253,213.8281" style="stroke:#181818;stroke-width:1;"/><line style="stroke:#181818;stroke-width:1;" x1="535.8501" x2="824.4253" y1="213.8281" y2="213.8281"/><text fill="#000000" font-family="sans-serif" font-size="13" lengthAdjust="spacing" textLength="214.4175" x="542.8501" y="208.7622">3. searchListings(filter,pageable)</text></g><g class="message" data-entity-1="part4" data-entity-2="part5" id="msg4"><polygon fill="#181818" points="1007.0391,238.9609,1017.0391,242.9609,1007.0391,246.9609,1011.0391,242.9609" style="stroke:#181818;stroke-width:1;"/><line style="stroke:#181818;stroke-width:1;" x1="830.4253" x2="1013.0391" y1="242.9609" y2="242.9609"/><text fill="#000000" font-family="sans-serif" font-size="13" lengthAdjust="spacing" textLength="103.7715" x="837.4253" y="237.895">4. filterBy(filter)</text></g><g class="message" data-entity-1="part5" data-entity-2="part4" id="msg5"><polygon fill="#181818" points="841.4253,268.0938,831.4253,272.0938,841.4253,276.0938,837.4253,272.0938" style="stroke:#181818;stroke-width:1;"/><line style="stroke:#181818;stroke-width:1;stroke-dasharray:2,2;" x1="835.4253" x2="1018.0391" y1="272.0938" y2="272.0938"/><text fill="#000000" font-family="sans-serif" font-size="13" lengthAdjust="spacing" textLength="164.6138" x="847.4253" y="267.0278">5. Specification&lt;Listing&gt;</text></g><g class="message" data-entity-1="part4" data-entity-2="part6" id="msg6"><polygon fill="#181818" points="1157.6401,297.2266,1167.6401,301.2266,1157.6401,305.2266,1161.6401,301.2266" style="stroke:#181818;stroke-width:1;"/><line style="stroke:#181818;stroke-width:1;" x1="830.4253" x2="1163.6401" y1="301.2266" y2="301.2266"/><text fill="#000000" font-family="sans-serif" font-size="13" lengthAdjust="spacing" textLength="162.0747" x="837.4253" y="296.1606">6. findAll(spec,pageable)</text></g><g class="message" data-entity-1="part6" data-entity-2="part7" id="msg7"><polygon fill="#181818" points="1378.0938,326.3594,1388.0938,330.3594,1378.0938,334.3594,1382.0938,330.3594" style="stroke:#181818;stroke-width:1;"/><line style="stroke:#181818;stroke-width:1;" x1="1169.6401" x2="1384.0938" y1="330.3594" y2="330.3594"/><text fill="#000000" font-family="sans-serif" font-size="13" lengthAdjust="spacing" textLength="196.4536" x="1176.6401" y="325.2935">7. SELECT + WHERE + paging</text></g><g class="message" data-entity-1="part7" data-entity-2="part6" id="msg8"><polygon fill="#181818" points="1180.6401,355.4922,1170.6401,359.4922,1180.6401,363.4922,1176.6401,359.4922" style="stroke:#181818;stroke-width:1;"/><line style="stroke:#181818;stroke-width:1;stroke-dasharray:2,2;" x1="1174.6401" x2="1389.0938" y1="359.4922" y2="359.4922"/><text fill="#000000" font-family="sans-serif" font-size="13" lengthAdjust="spacing" textLength="113.2041" x="1186.6401" y="354.4263">8. Page&lt;Listing&gt;</text></g><g class="message" data-entity-1="part6" data-entity-2="part4" id="msg9"><polygon fill="#181818" points="841.4253,384.625,831.4253,388.625,841.4253,392.625,837.4253,388.625" style="stroke:#181818;stroke-width:1;"/><line style="stroke:#181818;stroke-width:1;stroke-dasharray:2,2;" x1="835.4253" x2="1168.6401" y1="388.625" y2="388.625"/><text fill="#000000" font-family="sans-serif" font-size="13" lengthAdjust="spacing" textLength="113.2041" x="847.4253" y="383.5591">9. Page&lt;Listing&gt;</text></g><g class="message" data-entity-1="part4" data-entity-2="part3" id="msg10"><polygon fill="#181818" points="546.8501,413.7578,536.8501,417.7578,546.8501,421.7578,542.8501,417.7578" style="stroke:#181818;stroke-width:1;"/><line style="stroke:#181818;stroke-width:1;stroke-dasharray:2,2;" x1="540.8501" x2="829.4253" y1="417.7578" y2="417.7578"/><text fill="#000000" font-family="sans-serif" font-size="13" lengthAdjust="spacing" textLength="270.5752" x="552.8501" y="412.6919">10. PageResponse&lt;ListingResponseDto&gt;</text></g><g class="message" data-entity-1="part3" data-entity-2="part2" id="msg11"><polygon fill="#181818" points="294.5313,442.8906,284.5313,446.8906,294.5313,450.8906,290.5313,446.8906" style="stroke:#181818;stroke-width:1;"/><line style="stroke:#181818;stroke-width:1;stroke-dasharray:2,2;" x1="288.5313" x2="534.8501" y1="446.8906" y2="446.8906"/><text fill="#000000" font-family="sans-serif" font-size="13" lengthAdjust="spacing" textLength="72.5093" x="300.5313" y="441.8247">11. 200 OK</text></g><g class="message" data-entity-1="part2" data-entity-2="part1" id="msg12"><polygon fill="#181818" points="39.5591,472.0234,29.5591,476.0234,39.5591,480.0234,35.5591,476.0234" style="stroke:#181818;stroke-width:1;"/><line style="stroke:#181818;stroke-width:1;stroke-dasharray:2,2;" x1="33.5591" x2="282.5313" y1="476.0234" y2="476.0234"/><text fill="#000000" font-family="sans-serif" font-size="13" lengthAdjust="spacing" textLength="230.9722" x="45.5591" y="470.9575">12. Hi&#7875;n th&#7883; danh s&#225;ch / ph&#226;n trang</text></g><?plantuml-src PPBFSjCm4CRlUeeT7phfGEoaKFuD2PCudhRJ31WxXGiNHTx6chgIHr8BENFaAU0CBz0UEEH9yYQiR9CMUj9elzzyslrMN3Xj83YwGki2u1OcRAclLC7D6e8FM4fHuLnQb_8LVbAz3BbmS7Qotx1d9qnevOok8F2GLAkulLTe6Y9-0EHehgN0HiqVgZKAUIu5TrAhbaa98Z_XAtO7PbXhAwdtTKDbhE2EBxb5259jtSfW_dxUIBCfOwCHB3O_B-52Rcz-Ny8UfENcXm9dk5f1mLK9TlDTbF05OJHY4-YFQJPu1SCGtfRRcryrNE3wipP5T2uhXuQHIanCo448Hya28bxBw7eOLMrxzaqBshsQWcEnftEYduHWaHjHTcFONiizzXXVLhZFyePD2NuQGgjErnr6QWhzpkimX7_YUjrvZbkBZ91dta4LawhgMKBllP9vP3ObvZdP9FCaNi0Z-7YSP0cTn94H8xtVERq8mN-1kpUoNHyl_vVoHlBX30Ujbg6jQNixvkzzvlJOXxFBcm8_60pWtMcJC9KdlaeP7yljxLVQMBcz_NP_On7KTwly0m00?></g></svg>