<?plantuml 1.2026.2?><svg xmlns="http://www.w3.org/2000/svg" xmlns:xlink="http://www.w3.org/1999/xlink" contentStyleType="text/css" data-diagram-type="SEQUENCE" height="766px" preserveAspectRatio="none" style="width:1662px;height:766px;background:#FFFFFF;" version="1.1" viewBox="0 0 1662 766" width="1662px" zoomAndPan="magnify"><defs/><g><rect fill="none" height="265" style="stroke:#000000;stroke-width:1.5;" width="1554.0884" x="10" y="403.625"/><g class="participant-lifeline" data-entity-uid="part1" data-qualified-name="A" id="part1-lifeline"><g><title>User</title><rect fill="#000000" fill-opacity="0.00000" height="604.3281" width="8" x="34.9551" y="81.2969"/><line style="stroke:#181818;stroke-width:0.5;stroke-dasharray:5,5;" x1="38" x2="38" y1="81.2969" y2="685.625"/></g></g><g class="participant-lifeline" data-entity-uid="part2" data-qualified-name="UI" id="part2-lifeline"><g><title>LoginPage</title><rect fill="#000000" fill-opacity="0.00000" height="604.3281" width="8" x="300.3628" y="81.2969"/><line style="stroke:#181818;stroke-width:0.5;stroke-dasharray:5,5;" x1="304.0947" x2="304.0947" y1="81.2969" y2="685.625"/></g></g><g class="participant-lifeline" data-entity-uid="part3" data-qualified-name="C" id="part3-lifeline"><g><title>AuthController</title><rect fill="#000000" fill-opacity="0.00000" height="604.3281" width="8" x="580.6177" y="81.2969"/><line style="stroke:#181818;stroke-width:0.5;stroke-dasharray:5,5;" x1="583.625" x2="583.625" y1="81.2969" y2="685.625"/></g></g><g class="participant-lifeline" data-entity-uid="part4" data-qualified-name="S" id="part4-lifeline"><g><title>AuthService</title><rect fill="#000000" fill-opacity="0.00000" height="604.3281" width="8" x="845.9111" y="81.2969"/><line style="stroke:#181818;stroke-width:0.5;stroke-dasharray:5,5;" x1="849.6343" x2="849.6343" y1="81.2969" y2="685.625"/></g></g><g class="participant-lifeline" data-entity-uid="part5" data-qualified-name="R" id="part5-lifeline"><g><title>AppUserRepository</title><rect fill="#000000" fill-opacity="0.00000" height="604.3281" width="8" x="1202.8965" y="81.2969"/><line style="stroke:#181818;stroke-width:0.5;stroke-dasharray:5,5;" x1="1206.73" x2="1206.73" y1="81.2969" y2="685.625"/></g></g><g class="participant-lifeline" data-entity-uid="part6" data-qualified-name="PE" id="part6-lifeline"><g><title>PasswordEncoder</title><rect fill="#000000" fill-opacity="0.00000" height="604.3281" width="8" x="1353.8154" y="81.2969"/><line style="stroke:#181818;stroke-width:0.5;stroke-dasharray:5,5;" x1="1357.063" x2="1357.063" y1="81.2969" y2="685.625"/></g></g><g class="participant-lifeline" data-entity-uid="part7" data-qualified-name="J" id="part7-lifeline"><g><title>JwtTokenService</title><rect fill="#000000" fill-opacity="0.00000" height="604.3281" width="8" x="1489.3281" y="81.2969"/><line style="stroke:#181818;stroke-width:0.5;stroke-dasharray:5,5;" x1="1492.5679" x2="1492.5679" y1="81.2969" y2="685.625"/></g></g><g class="participant-lifeline" data-entity-uid="part8" data-qualified-name="DB" id="part8-lifeline"><g><title>PostgreSQL</title><rect fill="#000000" fill-opacity="0.00000" height="604.3281" width="8" x="1603.4648" y="81.2969"/><line style="stroke:#181818;stroke-width:0.5;stroke-dasharray:5,5;" x1="1607.0884" x2="1607.0884" y1="81.2969" y2="685.625"/></g></g><g class="participant participant-head" data-entity-uid="part1" data-qualified-name="A" id="part1-head"><text fill="#000000" font-family="sans-serif" font-size="14" lengthAdjust="spacing" textLength="31.9102" x="20" y="77.9951">User</text><ellipse cx="38.9551" cy="13.5" fill="#E2E2F0" rx="8" ry="8" style="stroke:#181818;stroke-width:0.5;"/><path d="M38.9551,21.5 L38.9551,48.5 M25.9551,29.5 L51.9551,29.5 M38.9551,48.5 L25.9551,63.5 M38.9551,48.5 L51.9551,63.5" fill="none" style="stroke:#181818;stroke-width:0.5;"/></g><g class="participant participant-tail" data-entity-uid="part1" data-qualified-name="A" id="part1-tail"><text fill="#000000" font-family="sans-serif" font-size="14" lengthAdjust="spacing" textLength="31.9102" x="20" y="697.6201">User</text><ellipse cx="38.9551" cy="709.4219" fill="#E2E2F0" rx="8" ry="8" style="stroke:#181818;stroke-width:0.5;"/><path d="M38.9551,717.4219 L38.9551,744.4219 M25.9551,725.4219 L51.9551,725.4219 M38.9551,744.4219 L25.9551,759.4219 M38.9551,744.4219 L51.9551,759.4219" fill="none" style="stroke:#181818;stroke-width:0.5;"/></g><g class="participant participant-head" data-entity-uid="part2" data-qualified-name="UI" id="part2-head"><text fill="#000000" font-family="sans-serif" font-size="14" lengthAdjust="spacing" textLength="72.5361" x="265.0947" y="61.6982">LoginPage</text><text fill="#000000" font-family="sans-serif" font-size="14" lengthAdjust="spacing" textLength="69.8564" x="266.4346" y="77.9951">(React UI)</text><path d="M283.8628,20.7031 L283.8628,44.7031 M283.8628,32.7031 L300.8628,32.7031" fill="none" style="stroke:#181818;stroke-width:0.5;"/><ellipse cx="312.8628" cy="32.7031" fill="#E2E2F0" rx="12" ry="12" style="stroke:#181818;stroke-width:0.5;"/></g><g class="participant participant-tail" data-entity-uid="part2" data-qualified-name="UI" id="part2-tail"><text fill="#000000" font-family="sans-serif" font-size="14" lengthAdjust="spacing" textLength="72.5361" x="265.0947" y="697.6201">LoginPage</text><text fill="#000000" font-family="sans-serif" font-size="14" lengthAdjust="spacing" textLength="69.8564" x="266.4346" y="713.917">(React UI)</text><path d="M283.8628,721.2188 L283.8628,745.2188 M283.8628,733.2188 L300.8628,733.2188" fill="none" style="stroke:#181818;stroke-width:0.5;"/><ellipse cx="312.8628" cy="733.2188" fill="#E2E2F0" rx="12" ry="12" style="stroke:#181818;stroke-width:0.5;"/></g><g class="participant participant-head" data-entity-uid="part3" data-qualified-name="C" id="part3-head"><text fill="#000000" font-family="sans-serif" font-size="14" lengthAdjust="spacing" textLength="101.9854" x="530.625" y="77.9951">AuthController</text><ellipse cx="584.6177" cy="49" fill="#E2E2F0" rx="12" ry="12" style="stroke:#181818;stroke-width:0.5;"/><polygon fill="#181818" points="580.6177,37,586.6177,32,584.6177,37,586.6177,42,580.6177,37" style="stroke:#181818;stroke-width:1;"/></g><g class="participant participant-tail" data-entity-uid="part3" data-qualified-name="C" id="part3-tail"><text fill="#000000" font-family="sans-serif" font-size="14" lengthAdjust="spacing" textLength="101.9854" x="530.625" y="697.6201">AuthController</text><ellipse cx="584.6177" cy="716.9219" fill="#E2E2F0" rx="12" ry="12" style="stroke:#181818;stroke-width:0.5;"/><polygon fill="#181818" points="580.6177,704.9219,586.6177,699.9219,584.6177,704.9219,586.6177,709.9219,580.6177,704.9219" style="stroke:#181818;stroke-width:1;"/></g><g class="participant participant-head" data-entity-uid="part4" data-qualified-name="S" id="part4-head"><text fill="#000000" font-family="sans-serif" font-size="14" lengthAdjust="spacing" textLength="84.5537" x="804.6343" y="77.9951">AuthService</text><ellipse cx="849.9111" cy="49" fill="#E2E2F0" rx="12" ry="12" style="stroke:#181818;stroke-width:0.5;"/><polygon fill="#181818" points="845.9111,37,851.9111,32,849.9111,37,851.9111,42,845.9111,37" style="stroke:#181818;stroke-width:1;"/></g><g class="participant participant-tail" data-entity-uid="part4" data-qualified-name="S" id="part4-tail"><text fill="#000000" font-family="sans-serif" font-size="14" lengthAdjust="spacing" textLength="84.5537" x="804.6343" y="697.6201">AuthService</text><ellipse cx="849.9111" cy="716.9219" fill="#E2E2F0" rx="12" ry="12" style="stroke:#181818;stroke-width:0.5;"/><polygon fill="#181818" points="845.9111,704.9219,851.9111,699.9219,849.9111,704.9219,851.9111,709.9219,845.9111,704.9219" style="stroke:#181818;stroke-width:1;"/></g><g class="participant participant-head" data-entity-uid="part5" data-qualified-name="R" id="part5-head"><rect fill="#E2E2F0" height="30.2969" style="stroke:#181818;stroke-width:0.5;" width="148.333" x="1134.73" y="46"/><rect fill="#E2E2F0" height="30.2969" style="stroke:#181818;stroke-width:0.5;" width="148.333" x="1130.73" y="50"/><text fill="#000000" font-family="sans-serif" font-size="14" lengthAdjust="spacing" textLength="134.333" x="1137.73" y="69.9951">AppUserRepository</text></g><g class="participant participant-tail" data-entity-uid="part5" data-qualified-name="R" id="part5-tail"><rect fill="#E2E2F0" height="30.2969" style="stroke:#181818;stroke-width:0.5;" width="148.333" x="1134.73" y="684.625"/><rect fill="#E2E2F0" height="30.2969" style="stroke:#181818;stroke-width:0.5;" width="148.333" x="1130.73" y="688.625"/><text fill="#000000" font-family="sans-serif" font-size="14" lengthAdjust="spacing" textLength="134.333" x="1137.73" y="708.6201">AppUserRepository</text></g><g class="participant participant-head" data-entity-uid="part6" data-qualified-name="PE" id="part6-head"><text fill="#000000" font-family="sans-serif" font-size="14" lengthAdjust="spacing" textLength="123.5049" x="1293.063" y="77.9951">PasswordEncoder</text><ellipse cx="1357.8154" cy="49" fill="#E2E2F0" rx="12" ry="12" style="stroke:#181818;stroke-width:0.5;"/><polygon fill="#181818" points="1353.8154,37,1359.8154,32,1357.8154,37,1359.8154,42,1353.8154,37" style="stroke:#181818;stroke-width:1;"/></g><g class="participant participant-tail" data-entity-uid="part6" data-qualified-name="PE" id="part6-tail"><text fill="#000000" font-family="sans-serif" font-size="14" lengthAdjust="spacing" textLength="123.5049" x="1293.063" y="697.6201">PasswordEncoder</text><ellipse cx="1357.8154" cy="716.9219" fill="#E2E2F0" rx="12" ry="12" style="stroke:#181818;stroke-width:0.5;"/><polygon fill="#181818" points="1353.8154,704.9219,1359.8154,699.9219,1357.8154,704.9219,1359.8154,709.9219,1353.8154,704.9219" style="stroke:#181818;stroke-width:1;"/></g><g class="participant participant-head" data-entity-uid="part7" data-qualified-name="J" id="part7-head"><text fill="#000000" font-family="sans-serif" font-size="14" lengthAdjust="spacing" textLength="115.5205" x="1432.5679" y="77.9951">JwtTokenService</text><ellipse cx="1493.3281" cy="49" fill="#E2E2F0" rx="12" ry="12" style="stroke:#181818;stroke-width:0.5;"/><polygon fill="#181818" points="1489.3281,37,1495.3281,32,1493.3281,37,1495.3281,42,1489.3281,37" style="stroke:#181818;stroke-width:1;"/></g><g class="participant participant-tail" data-entity-uid="part7" data-qualified-name="J" id="part7-tail"><text fill="#000000" font-family="sans-serif" font-size="14" lengthAdjust="spacing" textLength="115.5205" x="1432.5679" y="697.6201">JwtTokenService</text><ellipse cx="1493.3281" cy="716.9219" fill="#E2E2F0" rx="12" ry="12" style="stroke:#181818;stroke-width:0.5;"/><polygon fill="#181818" points="1489.3281,704.9219,1495.3281,699.9219,1493.3281,704.9219,1495.3281,709.9219,1489.3281,704.9219" style="stroke:#181818;stroke-width:1;"/></g><g class="participant participant-head" data-entity-uid="part8" data-qualified-name="DB" id="part8-head"><text fill="#000000" font-family="sans-serif" font-size="14" lengthAdjust="spacing" textLength="80.7529" x="1564.0884" y="77.9951">PostgreSQL</text><path d="M1589.4648,29 C1589.4648,19 1607.4648,19 1607.4648,19 C1607.4648,19 1625.4648,19 1625.4648,29 L1625.4648,55 C1625.4648,65 1607.4648,65 1607.4648,65 C1607.4648,65 1589.4648,65 1589.4648,55 L1589.4648,29" fill="#E2E2F0" style="stroke:#181818;stroke-width:0.5;"/><path d="M1589.4648,29 C1589.4648,39 1607.4648,39 1607.4648,39 C1607.4648,39 1625.4648,39 1625.4648,29" fill="none" style="stroke:#181818;stroke-width:0.5;"/></g><g class="participant participant-tail" data-entity-uid="part8" data-qualified-name="DB" id="part8-tail"><text fill="#000000" font-family="sans-serif" font-size="14" lengthAdjust="spacing" textLength="80.7529" x="1564.0884" y="697.6201">PostgreSQL</text><path d="M1589.4648,710.9219 C1589.4648,700.9219 1607.4648,700.9219 1607.4648,700.9219 C1607.4648,700.9219 1625.4648,700.9219 1625.4648,710.9219 L1625.4648,736.9219 C1625.4648,746.9219 1607.4648,746.9219 1607.4648,746.9219 C1607.4648,746.9219 1589.4648,746.9219 1589.4648,736.9219 L1589.4648,710.9219" fill="#E2E2F0" style="stroke:#181818;stroke-width:0.5;"/><path d="M1589.4648,710.9219 C1589.4648,720.9219 1607.4648,720.9219 1607.4648,720.9219 C1607.4648,720.9219 1625.4648,720.9219 1625.4648,710.9219" fill="none" style="stroke:#181818;stroke-width:0.5;"/></g><rect fill="#EEEEEE" height="3" style="stroke:#EEEEEE;stroke-width:1;" width="1655.8413" x="0" y="111.8633"/><line style="stroke:#000000;stroke-width:1;" x1="0" x2="1655.8413" y1="111.8633" y2="111.8633"/><line style="stroke:#000000;stroke-width:1;" x1="0" x2="1655.8413" y1="114.8633" y2="114.8633"/><rect fill="#EEEEEE" height="23.1328" style="stroke:#000000;stroke-width:2;" width="269.0869" x="693.3772" y="101.2969"/><text fill="#000000" font-family="sans-serif" font-size="13" font-weight="bold" lengthAdjust="spacing" textLength="250.561" x="699.3772" y="117.3638">X&#225;c th&#7921;c &amp; &#272;&#259;ng nh&#7853;p ng&#432;&#7901;i d&#249;ng</text><g class="message" data-entity-1="part1" data-entity-2="part2" id="msg1"><polygon fill="#181818" points="292.3628,151.5625,302.3628,155.5625,292.3628,159.5625,296.3628,155.5625" style="stroke:#181818;stroke-width:1;"/><line style="stroke:#181818;stroke-width:1;" x1="38.9551" x2="298.3628" y1="155.5625" y2="155.5625"/><text fill="#000000" font-family="sans-serif" font-size="13" lengthAdjust="spacing" textLength="241.4077" x="45.9551" y="150.4966">1. Nh&#7853;p username/email + password</text></g><g class="message" data-entity-1="part2" data-entity-2="part3" id="msg2"><polygon fill="#181818" points="572.6177,180.6953,582.6177,184.6953,572.6177,188.6953,576.6177,184.6953" style="stroke:#181818;stroke-width:1;"/><line style="stroke:#181818;stroke-width:1;" x1="304.3628" x2="578.6177" y1="184.6953" y2="184.6953"/><text fill="#000000" font-family="sans-serif" font-size="13" lengthAdjust="spacing" textLength="169.457" x="311.3628" y="179.6294">2. POST /api/v1/auth/login</text></g><g class="message" data-entity-1="part3" data-entity-2="part4" id="msg3"><polygon fill="#181818" points="837.9111,209.8281,847.9111,213.8281,837.9111,217.8281,841.9111,213.8281" style="stroke:#181818;stroke-width:1;"/><line style="stroke:#181818;stroke-width:1;" x1="584.6177" x2="843.9111" y1="213.8281" y2="213.8281"/><text fill="#000000" font-family="sans-serif" font-size="13" lengthAdjust="spacing" textLength="241.2935" x="591.6177" y="208.7622">3. login(usernameOrEmail,password)</text></g><g class="message" data-entity-1="part4" data-entity-2="part5" id="msg4"><polygon fill="#181818" points="1194.8965,238.9609,1204.8965,242.9609,1194.8965,246.9609,1198.8965,242.9609" style="stroke:#181818;stroke-width:1;"/><line style="stroke:#181818;stroke-width:1;" x1="849.9111" x2="1200.8965" y1="242.9609" y2="242.9609"/><text fill="#000000" font-family="sans-serif" font-size="13" lengthAdjust="spacing" textLength="332.9854" x="856.9111" y="237.895">4. findByUsernameIgnoreCaseOrEmailIgnoreCase()</text></g><g class="message" data-entity-1="part5" data-entity-2="part8" id="msg5"><polygon fill="#181818" points="1595.4648,268.0938,1605.4648,272.0938,1595.4648,276.0938,1599.4648,272.0938" style="stroke:#181818;stroke-width:1;"/><line style="stroke:#181818;stroke-width:1;" x1="1206.8965" x2="1601.4648" y1="272.0938" y2="272.0938"/><text fill="#000000" font-family="sans-serif" font-size="13" lengthAdjust="spacing" textLength="135.7065" x="1213.8965" y="267.0278">5. SELECT app_users</text></g><g class="message" data-entity-1="part8" data-entity-2="part5" id="msg6"><polygon fill="#181818" points="1217.8965,297.2266,1207.8965,301.2266,1217.8965,305.2266,1213.8965,301.2266" style="stroke:#181818;stroke-width:1;"/><line style="stroke:#181818;stroke-width:1;stroke-dasharray:2,2;" x1="1211.8965" x2="1606.4648" y1="301.2266" y2="301.2266"/><text fill="#000000" font-family="sans-serif" font-size="13" lengthAdjust="spacing" textLength="71.5635" x="1223.8965" y="296.1606">6. AppUser</text></g><g class="message" data-entity-1="part5" data-entity-2="part4" id="msg7"><polygon fill="#181818" points="860.9111,326.3594,850.9111,330.3594,860.9111,334.3594,856.9111,330.3594" style="stroke:#181818;stroke-width:1;"/><line style="stroke:#181818;stroke-width:1;stroke-dasharray:2,2;" x1="854.9111" x2="1205.8965" y1="330.3594" y2="330.3594"/><text fill="#000000" font-family="sans-serif" font-size="13" lengthAdjust="spacing" textLength="71.5635" x="866.9111" y="325.2935">7. AppUser</text></g><g class="message" data-entity-1="part4" data-entity-2="part6" id="msg8"><polygon fill="#181818" points="1345.8154,355.4922,1355.8154,359.4922,1345.8154,363.4922,1349.8154,359.4922" style="stroke:#181818;stroke-width:1;"/><line style="stroke:#181818;stroke-width:1;" x1="849.9111" x2="1351.8154" y1="359.4922" y2="359.4922"/><text fill="#000000" font-family="sans-serif" font-size="13" lengthAdjust="spacing" textLength="247.4761" x="856.9111" y="354.4263">8. matches(password, passwordHash)</text></g><g class="message" data-entity-1="part6" data-entity-2="part4" id="msg9"><polygon fill="#181818" points="860.9111,384.625,850.9111,388.625,860.9111,392.625,856.9111,388.625" style="stroke:#181818;stroke-width:1;"/><line style="stroke:#181818;stroke-width:1;stroke-dasharray:2,2;" x1="854.9111" x2="1356.8154" y1="388.625" y2="388.625"/><text fill="#000000" font-family="sans-serif" font-size="13" lengthAdjust="spacing" textLength="86.7852" x="866.9111" y="383.5591">9. true / false</text></g><path d="M10,403.625 L74.4429,403.625 L74.4429,410.7578 L64.4429,420.7578 L10,420.7578 L10,403.625" fill="#EEEEEE" style="stroke:#000000;stroke-width:1.5;"/><rect fill="none" height="265" style="stroke:#000000;stroke-width:1.5;" width="1554.0884" x="10" y="403.625"/><text fill="#000000" font-family="sans-serif" font-size="13" font-weight="bold" lengthAdjust="spacing" textLength="19.4429" x="25" y="416.6919">alt</text><text fill="#000000" font-family="sans-serif" font-size="11" font-weight="bold" lengthAdjust="spacing" textLength="302.7632" x="89.4429" y="415.8354">[H&#7907;p l&#7879; (Th&#244;ng tin &#273;&#250;ng &amp; T&#224;i kho&#7843;n ho&#7841;t &#273;&#7897;ng)]</text><g class="message" data-entity-1="part4" data-entity-2="part7" id="msg10"><polygon fill="#181818" points="1481.3281,437.8906,1491.3281,441.8906,1481.3281,445.8906,1485.3281,441.8906" style="stroke:#181818;stroke-width:1;"/><line style="stroke:#181818;stroke-width:1;" x1="849.9111" x2="1487.3281" y1="441.8906" y2="441.8906"/><text fill="#000000" font-family="sans-serif" font-size="13" lengthAdjust="spacing" textLength="130.165" x="856.9111" y="436.8247">10a. generate(user)</text></g><g class="message" data-entity-1="part7" data-entity-2="part4" id="msg11"><polygon fill="#181818" points="860.9111,467.0234,850.9111,471.0234,860.9111,475.0234,856.9111,471.0234" style="stroke:#181818;stroke-width:1;"/><line style="stroke:#181818;stroke-width:1;stroke-dasharray:2,2;" x1="854.9111" x2="1492.3281" y1="471.0234" y2="471.0234"/><text fill="#000000" font-family="sans-serif" font-size="13" lengthAdjust="spacing" textLength="104.6602" x="866.9111" y="465.9575">11a. signed JWT</text></g><g class="message" data-entity-1="part4" data-entity-2="part3" id="msg12"><polygon fill="#181818" points="595.6177,496.1563,585.6177,500.1563,595.6177,504.1563,591.6177,500.1563" style="stroke:#181818;stroke-width:1;"/><line style="stroke:#181818;stroke-width:1;stroke-dasharray:2,2;" x1="589.6177" x2="848.9111" y1="500.1563" y2="500.1563"/><text fill="#000000" font-family="sans-serif" font-size="13" lengthAdjust="spacing" textLength="126.2612" x="601.6177" y="495.0903">12a. AuthResponse</text></g><g class="message" data-entity-1="part3" data-entity-2="part2" id="msg13"><polygon fill="#181818" points="315.3628,525.2891,305.3628,529.2891,315.3628,533.2891,311.3628,529.2891" style="stroke:#181818;stroke-width:1;"/><line style="stroke:#181818;stroke-width:1;stroke-dasharray:2,2;" x1="309.3628" x2="583.6177" y1="529.2891" y2="529.2891"/><text fill="#000000" font-family="sans-serif" font-size="13" lengthAdjust="spacing" textLength="124.2617" x="321.3628" y="524.2231">13a. 200 OK + JWT</text></g><g class="message" data-entity-1="part2" data-entity-2="part1" id="msg14"><polygon fill="#181818" points="49.9551,554.4219,39.9551,558.4219,49.9551,562.4219,45.9551,558.4219" style="stroke:#181818;stroke-width:1;"/><line style="stroke:#181818;stroke-width:1;stroke-dasharray:2,2;" x1="43.9551" x2="303.3628" y1="558.4219" y2="558.4219"/><text fill="#000000" font-family="sans-serif" font-size="13" lengthAdjust="spacing" textLength="181.7715" x="55.9551" y="553.356">14a. &#272;&#259;ng nh&#7853;p th&#224;nh c&#244;ng</text></g><line style="stroke:#000000;stroke-width:1;stroke-dasharray:2,2;" x1="10" x2="1564.0884" y1="567.4219" y2="567.4219"/><text fill="#000000" font-family="sans-serif" font-size="11" font-weight="bold" lengthAdjust="spacing" textLength="147.8286" x="15" y="577.6323">[Sai th&#244;ng tin / B&#7883; kh&#243;a]</text><g class="message" data-entity-1="part4" data-entity-2="part3" id="msg15"><polygon fill="#181818" points="595.6177,598.3594,585.6177,602.3594,595.6177,606.3594,591.6177,602.3594" style="stroke:#181818;stroke-width:1;"/><line style="stroke:#181818;stroke-width:1;stroke-dasharray:2,2;" x1="589.6177" x2="848.9111" y1="602.3594" y2="602.3594"/><text fill="#000000" font-family="sans-serif" font-size="13" lengthAdjust="spacing" textLength="127.7339" x="601.6177" y="597.2935">10b. AuthException</text></g><g class="message" data-entity-1="part3" data-entity-2="part2" id="msg16"><polygon fill="#181818" points="315.3628,627.4922,305.3628,631.4922,315.3628,635.4922,311.3628,631.4922" style="stroke:#181818;stroke-width:1;"/><line style="stroke:#181818;stroke-width:1;stroke-dasharray:2,2;" x1="309.3628" x2="583.6177" y1="631.4922" y2="631.4922"/><text fill="#000000" font-family="sans-serif" font-size="13" lengthAdjust="spacing" textLength="256.2549" x="321.3628" y="626.4263">11b. 401 Unauthorized / 403 Forbidden</text></g><g class="message" data-entity-1="part2" data-entity-2="part1" id="msg17"><polygon fill="#181818" points="49.9551,656.625,39.9551,660.625,49.9551,664.625,45.9551,660.625" style="stroke:#181818;stroke-width:1;"/><line style="stroke:#181818;stroke-width:1;stroke-dasharray:2,2;" x1="43.9551" x2="303.3628" y1="660.625" y2="660.625"/><text fill="#000000" font-family="sans-serif" font-size="13" lengthAdjust="spacing" textLength="103.0732" x="55.9551" y="655.5591">12b. Hi&#7875;n th&#7883; l&#7895;i</text></g><?plantuml-src NPFBRjD058RtynH7MLI9QEquBLSfI8bhr8IAXZWHB93Gn9xQexepbcVI2zikM7G3AyG2gLNNI23OK2zTyHv-4yuuJaExIdA-_vpvpoKqq3A3nbInh05KGO_Cv5o4D3k5ngwCk1ZHYBqJpJ6ZWORfe5MffWCIIA4pcK2ZDzUnk_YHr4NSkzHdsH4FM8LyHAWBD9T28KvJy_IOfL9nT79QYSQh_15LwbXceIS26TRbHzwA3u_rH1umyVyRGn9IJMTKCSoNIaSPyr_lLcYxJqYt2s-Bom1qNEO_0rY3cqytPo824PVNtrCGqTyVPVwDGrZymMYtItgmyHnRXcVWMF1gePgZQq4FcSqEAK_W0QIrKO92bBkexbWmslCdODEKsqUEJN4MTcA6IboZyL6pQK4LQIuBxcMUgRY-hDSYlj6EKRjbmJuNOVzqMci7aP0PSx7HEciLQBR8sEHjzp7neGM-j-kv4w1f-jwyf0Y2ZRhk8mlgFPYSsjZZLR0oCF8m-CI2Gwg3cAdcqj_wRUSxLCKjWhfbYQSMw6pEm8PzcYX624qqx9JvLGf9cN-4vYGkVkE8DHTmyxcungzhC2akE1p4iho-4c0-BZN2ClygeXO1gBmCpIhQr8A82PPHpQhf6JoyVTnna2iU2HR2yCraaLelnkaWCvSvPYh5EsH8tOekjho9kDDkmzvBNEmYsMmLUS_WBSHtRqR7nOM88J3j48QzWa-vYIxRiw5VvkVOL_6BthNIdYsiU2S1Iys_ufuN1_bMsu6fCESZC_u16x8nj0alP3RZOSZ4FNyTJDdXPNucgXi_DzF-mWaJuJy0?></g></svg>