<?plantuml 1.2026.2?><svg xmlns="http://www.w3.org/2000/svg" xmlns:xlink="http://www.w3.org/1999/xlink" contentStyleType="text/css" data-diagram-type="SEQUENCE" height="967px" preserveAspectRatio="none" style="width:1302px;height:967px;background:#FFFFFF;" version="1.1" viewBox="0 0 1302 967" width="1302px" zoomAndPan="magnify"><defs/><g><g class="participant-lifeline" data-entity-uid="part1" data-qualified-name="A" id="part1-lifeline"><g><title>STAFF</title><rect fill="#000000" fill-opacity="0.00000" height="805.4531" width="8" x="25.5605" y="81.2969"/><line style="stroke:#181818;stroke-width:0.5;stroke-dasharray:5,5;" x1="29" x2="29" y1="81.2969" y2="886.75"/></g></g><g class="participant-lifeline" data-entity-uid="part2" data-qualified-name="UI" id="part2-lifeline"><g><title>StaffAppointmentPage</title><rect fill="#000000" fill-opacity="0.00000" height="805.4531" width="8" x="211.7051" y="81.2969"/><line style="stroke:#181818;stroke-width:0.5;stroke-dasharray:5,5;" x1="215.6475" x2="215.6475" y1="81.2969" y2="886.75"/></g></g><g class="participant-lifeline" data-entity-uid="part3" data-qualified-name="C" id="part3-lifeline"><g><title>StaffAppointmentController</title><rect fill="#000000" fill-opacity="0.00000" height="805.4531" width="8" x="591.6309" y="81.2969"/><line style="stroke:#181818;stroke-width:0.5;stroke-dasharray:5,5;" x1="595.2476" x2="595.2476" y1="81.2969" y2="886.75"/></g></g><g class="participant-lifeline" data-entity-uid="part4" data-qualified-name="S" id="part4-lifeline"><g><title>AppointmentService</title><rect fill="#000000" fill-opacity="0.00000" height="805.4531" width="8" x="878.4048" y="81.2969"/><line style="stroke:#181818;stroke-width:0.5;stroke-dasharray:5,5;" x1="882.1436" x2="882.1436" y1="81.2969" y2="886.75"/></g></g><g class="participant-lifeline" data-entity-uid="part5" data-qualified-name="R" id="part5-lifeline"><g><title>AppointmentRepository</title><rect fill="#000000" fill-opacity="0.00000" height="805.4531" width="8" x="1054.5928" y="81.2969"/><line style="stroke:#181818;stroke-width:0.5;stroke-dasharray:5,5;" x1="1057.666" x2="1057.666" y1="81.2969" y2="886.75"/></g></g><g class="participant-lifeline" data-entity-uid="part6" data-qualified-name="DB" id="part6-lifeline"><g><title>PostgreSQL</title><rect fill="#000000" fill-opacity="0.00000" height="805.4531" width="8" x="1243.3145" y="81.2969"/><line style="stroke:#181818;stroke-width:0.5;stroke-dasharray:5,5;" x1="1246.938" x2="1246.938" y1="81.2969" y2="886.75"/></g></g><g class="participant participant-head" data-entity-uid="part1" data-qualified-name="A" id="part1-head"><text fill="#000000" font-family="sans-serif" font-size="14" lengthAdjust="spacing" textLength="43.1211" x="5" y="77.9951">STAFF</text><ellipse cx="29.5605" cy="13.5" fill="#E2E2F0" rx="8" ry="8" style="stroke:#181818;stroke-width:0.5;"/><path d="M29.5605,21.5 L29.5605,48.5 M16.5605,29.5 L42.5605,29.5 M29.5605,48.5 L16.5605,63.5 M29.5605,48.5 L42.5605,63.5" fill="none" style="stroke:#181818;stroke-width:0.5;"/></g><g class="participant participant-tail" data-entity-uid="part1" data-qualified-name="A" id="part1-tail"><text fill="#000000" font-family="sans-serif" font-size="14" lengthAdjust="spacing" textLength="43.1211" x="5" y="898.7451">STAFF</text><ellipse cx="29.5605" cy="910.5469" fill="#E2E2F0" rx="8" ry="8" style="stroke:#181818;stroke-width:0.5;"/><path d="M29.5605,918.5469 L29.5605,945.5469 M16.5605,926.5469 L42.5605,926.5469 M29.5605,945.5469 L16.5605,960.5469 M29.5605,945.5469 L42.5605,960.5469" fill="none" style="stroke:#181818;stroke-width:0.5;"/></g><g class="participant participant-head" data-entity-uid="part2" data-qualified-name="UI" id="part2-head"><text fill="#000000" font-family="sans-serif" font-size="14" lengthAdjust="spacing" textLength="158.1152" x="133.6475" y="61.6982">StaffAppointmentPage</text><text fill="#000000" font-family="sans-serif" font-size="14" lengthAdjust="spacing" textLength="69.8564" x="177.7769" y="77.9951">(React UI)</text><path d="M195.2051,20.7031 L195.2051,44.7031 M195.2051,32.7031 L212.2051,32.7031" fill="none" style="stroke:#181818;stroke-width:0.5;"/><ellipse cx="224.2051" cy="32.7031" fill="#E2E2F0" rx="12" ry="12" style="stroke:#181818;stroke-width:0.5;"/></g><g class="participant participant-tail" data-entity-uid="part2" data-qualified-name="UI" id="part2-tail"><text fill="#000000" font-family="sans-serif" font-size="14" lengthAdjust="spacing" textLength="158.1152" x="133.6475" y="898.7451">StaffAppointmentPage</text><text fill="#000000" font-family="sans-serif" font-size="14" lengthAdjust="spacing" textLength="69.8564" x="177.7769" y="915.042">(React UI)</text><path d="M195.2051,922.3438 L195.2051,946.3438 M195.2051,934.3438 L212.2051,934.3438" fill="none" style="stroke:#181818;stroke-width:0.5;"/><ellipse cx="224.2051" cy="934.3438" fill="#E2E2F0" rx="12" ry="12" style="stroke:#181818;stroke-width:0.5;"/></g><g class="participant participant-head" data-entity-uid="part3" data-qualified-name="C" id="part3-head"><text fill="#000000" font-family="sans-serif" font-size="14" lengthAdjust="spacing" textLength="192.7666" x="496.2476" y="77.9951">StaffAppointmentController</text><ellipse cx="595.6309" cy="49" fill="#E2E2F0" rx="12" ry="12" style="stroke:#181818;stroke-width:0.5;"/><polygon fill="#181818" points="591.6309,37,597.6309,32,595.6309,37,597.6309,42,591.6309,37" style="stroke:#181818;stroke-width:1;"/></g><g class="participant participant-tail" data-entity-uid="part3" data-qualified-name="C" id="part3-tail"><text fill="#000000" font-family="sans-serif" font-size="14" lengthAdjust="spacing" textLength="192.7666" x="496.2476" y="898.7451">StaffAppointmentController</text><ellipse cx="595.6309" cy="918.0469" fill="#E2E2F0" rx="12" ry="12" style="stroke:#181818;stroke-width:0.5;"/><polygon fill="#181818" points="591.6309,906.0469,597.6309,901.0469,595.6309,906.0469,597.6309,911.0469,591.6309,906.0469" style="stroke:#181818;stroke-width:1;"/></g><g class="participant participant-head" data-entity-uid="part4" data-qualified-name="S" id="part4-head"><text fill="#000000" font-family="sans-serif" font-size="14" lengthAdjust="spacing" textLength="142.5225" x="808.1436" y="77.9951">AppointmentService</text><ellipse cx="882.4048" cy="49" fill="#E2E2F0" rx="12" ry="12" style="stroke:#181818;stroke-width:0.5;"/><polygon fill="#181818" points="878.4048,37,884.4048,32,882.4048,37,884.4048,42,878.4048,37" style="stroke:#181818;stroke-width:1;"/></g><g class="participant participant-tail" data-entity-uid="part4" data-qualified-name="S" id="part4-tail"><text fill="#000000" font-family="sans-serif" font-size="14" lengthAdjust="spacing" textLength="142.5225" x="808.1436" y="898.7451">AppointmentService</text><ellipse cx="882.4048" cy="918.0469" fill="#E2E2F0" rx="12" ry="12" style="stroke:#181818;stroke-width:0.5;"/><polygon fill="#181818" points="878.4048,906.0469,884.4048,901.0469,882.4048,906.0469,884.4048,911.0469,878.4048,906.0469" style="stroke:#181818;stroke-width:1;"/></g><g class="participant participant-head" data-entity-uid="part5" data-qualified-name="R" id="part5-head"><rect fill="#E2E2F0" height="30.2969" style="stroke:#181818;stroke-width:0.5;" width="179.8535" x="970.666" y="46"/><rect fill="#E2E2F0" height="30.2969" style="stroke:#181818;stroke-width:0.5;" width="179.8535" x="966.666" y="50"/><text fill="#000000" font-family="sans-serif" font-size="14" lengthAdjust="spacing" textLength="165.8535" x="973.666" y="69.9951">AppointmentRepository</text></g><g class="participant participant-tail" data-entity-uid="part5" data-qualified-name="R" id="part5-tail"><rect fill="#E2E2F0" height="30.2969" style="stroke:#181818;stroke-width:0.5;" width="179.8535" x="970.666" y="885.75"/><rect fill="#E2E2F0" height="30.2969" style="stroke:#181818;stroke-width:0.5;" width="179.8535" x="966.666" y="889.75"/><text fill="#000000" font-family="sans-serif" font-size="14" lengthAdjust="spacing" textLength="165.8535" x="973.666" y="909.7451">AppointmentRepository</text></g><g class="participant participant-head" data-entity-uid="part6" data-qualified-name="DB" id="part6-head"><text fill="#000000" font-family="sans-serif" font-size="14" lengthAdjust="spacing" textLength="80.7529" x="1203.938" y="77.9951">PostgreSQL</text><path d="M1229.3145,29 C1229.3145,19 1247.3145,19 1247.3145,19 C1247.3145,19 1265.3145,19 1265.3145,29 L1265.3145,55 C1265.3145,65 1247.3145,65 1247.3145,65 C1247.3145,65 1229.3145,65 1229.3145,55 L1229.3145,29" fill="#E2E2F0" style="stroke:#181818;stroke-width:0.5;"/><path d="M1229.3145,29 C1229.3145,39 1247.3145,39 1247.3145,39 C1247.3145,39 1265.3145,39 1265.3145,29" fill="none" style="stroke:#181818;stroke-width:0.5;"/></g><g class="participant participant-tail" data-entity-uid="part6" data-qualified-name="DB" id="part6-tail"><text fill="#000000" font-family="sans-serif" font-size="14" lengthAdjust="spacing" textLength="80.7529" x="1203.938" y="898.7451">PostgreSQL</text><path d="M1229.3145,912.0469 C1229.3145,902.0469 1247.3145,902.0469 1247.3145,902.0469 C1247.3145,902.0469 1265.3145,902.0469 1265.3145,912.0469 L1265.3145,938.0469 C1265.3145,948.0469 1247.3145,948.0469 1247.3145,948.0469 C1247.3145,948.0469 1229.3145,948.0469 1229.3145,938.0469 L1229.3145,912.0469" fill="#E2E2F0" style="stroke:#181818;stroke-width:0.5;"/><path d="M1229.3145,912.0469 C1229.3145,922.0469 1247.3145,922.0469 1247.3145,922.0469 C1247.3145,922.0469 1265.3145,922.0469 1265.3145,912.0469" fill="none" style="stroke:#181818;stroke-width:0.5;"/></g><rect fill="#EEEEEE" height="3" style="stroke:#EEEEEE;stroke-width:1;" width="1295.6909" x="0" y="111.8633"/><line style="stroke:#000000;stroke-width:1;" x1="0" x2="1295.6909" y1="111.8633" y2="111.8633"/><line style="stroke:#000000;stroke-width:1;" x1="0" x2="1295.6909" y1="114.8633" y2="114.8633"/><rect fill="#EEEEEE" height="23.1328" style="stroke:#000000;stroke-width:2;" width="210.7837" x="542.4536" y="101.2969"/><text fill="#000000" font-family="sans-serif" font-size="13" font-weight="bold" lengthAdjust="spacing" textLength="192.2578" x="548.4536" y="117.3638">1. Xem danh s&#225;ch l&#7883;ch h&#7865;n</text><g class="message" data-entity-1="part1" data-entity-2="part2" id="msg1"><polygon fill="#181818" points="203.7051,151.5625,213.7051,155.5625,203.7051,159.5625,207.7051,155.5625" style="stroke:#181818;stroke-width:1;"/><line style="stroke:#181818;stroke-width:1;" x1="29.5605" x2="209.7051" y1="155.5625" y2="155.5625"/><text fill="#000000" font-family="sans-serif" font-size="13" lengthAdjust="spacing" textLength="162.1445" x="36.5605" y="150.4966">1. M&#7903; danh s&#225;ch l&#7883;ch h&#7865;n</text></g><g class="message" data-entity-1="part2" data-entity-2="part3" id="msg2"><polygon fill="#181818" points="583.6309,180.6953,593.6309,184.6953,583.6309,188.6953,587.6309,184.6953" style="stroke:#181818;stroke-width:1;"/><line style="stroke:#181818;stroke-width:1;" x1="215.7051" x2="589.6309" y1="184.6953" y2="184.6953"/><text fill="#000000" font-family="sans-serif" font-size="13" lengthAdjust="spacing" textLength="355.9258" x="222.7051" y="179.6294">2. GET /api/v1/staff/appointments?showroomId&amp;status</text></g><g class="message" data-entity-1="part3" data-entity-2="part4" id="msg3"><polygon fill="#181818" points="870.4048,209.8281,880.4048,213.8281,870.4048,217.8281,874.4048,213.8281" style="stroke:#181818;stroke-width:1;"/><line style="stroke:#181818;stroke-width:1;" x1="595.6309" x2="876.4048" y1="213.8281" y2="213.8281"/><text fill="#000000" font-family="sans-serif" font-size="13" lengthAdjust="spacing" textLength="262.7739" x="602.6309" y="208.7622">3. getAppointments(showroomId,status)</text></g><g class="message" data-entity-1="part4" data-entity-2="part5" id="msg4"><polygon fill="#181818" points="1046.5928,238.9609,1056.5928,242.9609,1046.5928,246.9609,1050.5928,242.9609" style="stroke:#181818;stroke-width:1;"/><line style="stroke:#181818;stroke-width:1;" x1="882.4048" x2="1052.5928" y1="242.9609" y2="242.9609"/><text fill="#000000" font-family="sans-serif" font-size="13" lengthAdjust="spacing" textLength="135.4907" x="889.4048" y="237.895">4. find appointments</text></g><g class="message" data-entity-1="part5" data-entity-2="part6" id="msg5"><polygon fill="#181818" points="1235.3145,268.0938,1245.3145,272.0938,1235.3145,276.0938,1239.3145,272.0938" style="stroke:#181818;stroke-width:1;"/><line style="stroke:#181818;stroke-width:1;" x1="1058.5928" x2="1241.3145" y1="272.0938" y2="272.0938"/><text fill="#000000" font-family="sans-serif" font-size="13" lengthAdjust="spacing" textLength="159.7515" x="1065.5928" y="267.0278">5. SELECT appointments</text></g><g class="message" data-entity-1="part6" data-entity-2="part5" id="msg6"><polygon fill="#181818" points="1069.5928,297.2266,1059.5928,301.2266,1069.5928,305.2266,1065.5928,301.2266" style="stroke:#181818;stroke-width:1;"/><line style="stroke:#181818;stroke-width:1;stroke-dasharray:2,2;" x1="1063.5928" x2="1246.3145" y1="301.2266" y2="301.2266"/><text fill="#000000" font-family="sans-serif" font-size="13" lengthAdjust="spacing" textLength="145.3423" x="1075.5928" y="296.1606">6. List&lt;Appointment&gt;</text></g><g class="message" data-entity-1="part5" data-entity-2="part4" id="msg7"><polygon fill="#181818" points="893.4048,326.3594,883.4048,330.3594,893.4048,334.3594,889.4048,330.3594" style="stroke:#181818;stroke-width:1;"/><line style="stroke:#181818;stroke-width:1;stroke-dasharray:2,2;" x1="887.4048" x2="1057.5928" y1="330.3594" y2="330.3594"/><text fill="#000000" font-family="sans-serif" font-size="13" lengthAdjust="spacing" textLength="145.3423" x="899.4048" y="325.2935">7. List&lt;Appointment&gt;</text></g><g class="message" data-entity-1="part4" data-entity-2="part3" id="msg8"><polygon fill="#181818" points="606.6309,355.4922,596.6309,359.4922,606.6309,363.4922,602.6309,359.4922" style="stroke:#181818;stroke-width:1;"/><line style="stroke:#181818;stroke-width:1;stroke-dasharray:2,2;" x1="600.6309" x2="881.4048" y1="359.4922" y2="359.4922"/><text fill="#000000" font-family="sans-serif" font-size="13" lengthAdjust="spacing" textLength="145.3423" x="612.6309" y="354.4263">8. List&lt;Appointment&gt;</text></g><g class="message" data-entity-1="part3" data-entity-2="part2" id="msg9"><polygon fill="#181818" points="226.7051,384.625,216.7051,388.625,226.7051,392.625,222.7051,388.625" style="stroke:#181818;stroke-width:1;"/><line style="stroke:#181818;stroke-width:1;stroke-dasharray:2,2;" x1="220.7051" x2="594.6309" y1="388.625" y2="388.625"/><text fill="#000000" font-family="sans-serif" font-size="13" lengthAdjust="spacing" textLength="64.2383" x="232.7051" y="383.5591">9. 200 OK</text></g><g class="message" data-entity-1="part2" data-entity-2="part1" id="msg10"><polygon fill="#181818" points="40.5605,413.7578,30.5605,417.7578,40.5605,421.7578,36.5605,417.7578" style="stroke:#181818;stroke-width:1;"/><line style="stroke:#181818;stroke-width:1;stroke-dasharray:2,2;" x1="34.5605" x2="214.7051" y1="417.7578" y2="417.7578"/><text fill="#000000" font-family="sans-serif" font-size="13" lengthAdjust="spacing" textLength="130.8633" x="46.5605" y="412.6919">10. Hi&#7875;n th&#7883; l&#7883;ch h&#7865;n</text></g><rect fill="#EEEEEE" height="3" style="stroke:#EEEEEE;stroke-width:1;" width="1295.6909" x="0" y="446.3242"/><line style="stroke:#000000;stroke-width:1;" x1="0" x2="1295.6909" y1="446.3242" y2="446.3242"/><line style="stroke:#000000;stroke-width:1;" x1="0" x2="1295.6909" y1="449.3242" y2="449.3242"/><rect fill="#EEEEEE" height="23.1328" style="stroke:#000000;stroke-width:2;" width="238.2754" x="528.7078" y="435.7578"/><text fill="#000000" font-family="sans-serif" font-size="13" font-weight="bold" lengthAdjust="spacing" textLength="219.7495" x="534.7078" y="451.8247">2. Th&#7921;c hi&#7879;n Check-in l&#7883;ch h&#7865;n</text><g class="message" data-entity-1="part1" data-entity-2="part2" id="msg11"><polygon fill="#181818" points="203.7051,486.0234,213.7051,490.0234,203.7051,494.0234,207.7051,490.0234" style="stroke:#181818;stroke-width:1;"/><line style="stroke:#181818;stroke-width:1;" x1="29.5605" x2="209.7051" y1="490.0234" y2="490.0234"/><text fill="#000000" font-family="sans-serif" font-size="13" lengthAdjust="spacing" textLength="115.0195" x="36.5605" y="484.9575">11. B&#7845;m Check-in</text></g><g class="message" data-entity-1="part2" data-entity-2="part3" id="msg12"><polygon fill="#181818" points="583.6309,515.1563,593.6309,519.1563,583.6309,523.1563,587.6309,519.1563" style="stroke:#181818;stroke-width:1;"/><line style="stroke:#181818;stroke-width:1;" x1="215.7051" x2="589.6309" y1="519.1563" y2="519.1563"/><text fill="#000000" font-family="sans-serif" font-size="13" lengthAdjust="spacing" textLength="318.4492" x="222.7051" y="514.0903">12. PUT /api/v1/staff/appointments/{id}/check-in</text></g><g class="message" data-entity-1="part3" data-entity-2="part4" id="msg13"><polygon fill="#181818" points="870.4048,544.2891,880.4048,548.2891,870.4048,552.2891,874.4048,548.2891" style="stroke:#181818;stroke-width:1;"/><line style="stroke:#181818;stroke-width:1;" x1="595.6309" x2="876.4048" y1="548.2891" y2="548.2891"/><text fill="#000000" font-family="sans-serif" font-size="13" lengthAdjust="spacing" textLength="154.9146" x="602.6309" y="543.2231">13. checkIn(id, request)</text></g><g class="message" data-entity-1="part4" data-entity-2="part5" id="msg14"><polygon fill="#181818" points="1046.5928,573.4219,1056.5928,577.4219,1046.5928,581.4219,1050.5928,577.4219" style="stroke:#181818;stroke-width:1;"/><line style="stroke:#181818;stroke-width:1;" x1="882.4048" x2="1052.5928" y1="577.4219" y2="577.4219"/><text fill="#000000" font-family="sans-serif" font-size="13" lengthAdjust="spacing" textLength="100.1914" x="889.4048" y="572.356">14. findById(id)</text></g><g class="message" data-entity-1="part5" data-entity-2="part6" id="msg15"><polygon fill="#181818" points="1235.3145,602.5547,1245.3145,606.5547,1235.3145,610.5547,1239.3145,606.5547" style="stroke:#181818;stroke-width:1;"/><line style="stroke:#181818;stroke-width:1;" x1="1058.5928" x2="1241.3145" y1="606.5547" y2="606.5547"/><text fill="#000000" font-family="sans-serif" font-size="13" lengthAdjust="spacing" textLength="161.2495" x="1065.5928" y="601.4888">15. SELECT appointment</text></g><g class="message" data-entity-1="part6" data-entity-2="part5" id="msg16"><polygon fill="#181818" points="1069.5928,631.6875,1059.5928,635.6875,1069.5928,639.6875,1065.5928,635.6875" style="stroke:#181818;stroke-width:1;"/><line style="stroke:#181818;stroke-width:1;stroke-dasharray:2,2;" x1="1063.5928" x2="1246.3145" y1="635.6875" y2="635.6875"/><text fill="#000000" font-family="sans-serif" font-size="13" lengthAdjust="spacing" textLength="109.1035" x="1075.5928" y="630.6216">16. Appointment</text></g><g class="message" data-entity-1="part5" data-entity-2="part4" id="msg17"><polygon fill="#181818" points="893.4048,660.8203,883.4048,664.8203,893.4048,668.8203,889.4048,664.8203" style="stroke:#181818;stroke-width:1;"/><line style="stroke:#181818;stroke-width:1;stroke-dasharray:2,2;" x1="887.4048" x2="1057.5928" y1="664.8203" y2="664.8203"/><text fill="#000000" font-family="sans-serif" font-size="13" lengthAdjust="spacing" textLength="109.1035" x="899.4048" y="659.7544">17. Appointment</text></g><g class="message" data-entity-1="part4" data-entity-2="part5" id="msg18"><polygon fill="#181818" points="1046.5928,689.9531,1056.5928,693.9531,1046.5928,697.9531,1050.5928,693.9531" style="stroke:#181818;stroke-width:1;"/><line style="stroke:#181818;stroke-width:1;" x1="882.4048" x2="1052.5928" y1="693.9531" y2="693.9531"/><text fill="#000000" font-family="sans-serif" font-size="13" lengthAdjust="spacing" textLength="145.3677" x="889.4048" y="688.8872">18. save(COMPLETED)</text></g><g class="message" data-entity-1="part5" data-entity-2="part6" id="msg19"><polygon fill="#181818" points="1235.3145,719.0859,1245.3145,723.0859,1235.3145,727.0859,1239.3145,723.0859" style="stroke:#181818;stroke-width:1;"/><line style="stroke:#181818;stroke-width:1;" x1="1058.5928" x2="1241.3145" y1="723.0859" y2="723.0859"/><text fill="#000000" font-family="sans-serif" font-size="13" lengthAdjust="spacing" textLength="164.7217" x="1065.5928" y="718.02">19. UPDATE appointment</text></g><g class="message" data-entity-1="part6" data-entity-2="part5" id="msg20"><polygon fill="#181818" points="1069.5928,748.2188,1059.5928,752.2188,1069.5928,756.2188,1065.5928,752.2188" style="stroke:#181818;stroke-width:1;"/><line style="stroke:#181818;stroke-width:1;stroke-dasharray:2,2;" x1="1063.5928" x2="1246.3145" y1="752.2188" y2="752.2188"/><text fill="#000000" font-family="sans-serif" font-size="13" lengthAdjust="spacing" textLength="109.1035" x="1075.5928" y="747.1528">20. Appointment</text></g><g class="message" data-entity-1="part5" data-entity-2="part4" id="msg21"><polygon fill="#181818" points="893.4048,777.3516,883.4048,781.3516,893.4048,785.3516,889.4048,781.3516" style="stroke:#181818;stroke-width:1;"/><line style="stroke:#181818;stroke-width:1;stroke-dasharray:2,2;" x1="887.4048" x2="1057.5928" y1="781.3516" y2="781.3516"/><text fill="#000000" font-family="sans-serif" font-size="13" lengthAdjust="spacing" textLength="109.1035" x="899.4048" y="776.2856">21. Appointment</text></g><g class="message" data-entity-1="part4" data-entity-2="part3" id="msg22"><polygon fill="#181818" points="606.6309,806.4844,596.6309,810.4844,606.6309,814.4844,602.6309,810.4844" style="stroke:#181818;stroke-width:1;"/><line style="stroke:#181818;stroke-width:1;stroke-dasharray:2,2;" x1="600.6309" x2="881.4048" y1="810.4844" y2="810.4844"/><text fill="#000000" font-family="sans-serif" font-size="13" lengthAdjust="spacing" textLength="109.1035" x="612.6309" y="805.4185">22. Appointment</text></g><g class="message" data-entity-1="part3" data-entity-2="part2" id="msg23"><polygon fill="#181818" points="226.7051,835.6172,216.7051,839.6172,226.7051,843.6172,222.7051,839.6172" style="stroke:#181818;stroke-width:1;"/><line style="stroke:#181818;stroke-width:1;stroke-dasharray:2,2;" x1="220.7051" x2="594.6309" y1="839.6172" y2="839.6172"/><text fill="#000000" font-family="sans-serif" font-size="13" lengthAdjust="spacing" textLength="72.5093" x="232.7051" y="834.5513">23. 200 OK</text></g><g class="message" data-entity-1="part2" data-entity-2="part1" id="msg24"><polygon fill="#181818" points="40.5605,864.75,30.5605,868.75,40.5605,872.75,36.5605,868.75" style="stroke:#181818;stroke-width:1;"/><line style="stroke:#181818;stroke-width:1;stroke-dasharray:2,2;" x1="34.5605" x2="214.7051" y1="868.75" y2="868.75"/><text fill="#000000" font-family="sans-serif" font-size="13" lengthAdjust="spacing" textLength="151.855" x="46.5605" y="863.6841">24. C&#7853;p nh&#7853;t tr&#7841;ng th&#225;i</text></g><?plantuml-src VP9FZz906CRl_HHlE1X8baAxwggHDQLqjP7DObiI3rvcsu5EX1di31XYF7dmu8Sm73pkmQDmt4_IR-BRBWlJBEofcNb-xvzvdf9OYGngOUHSNDI0I72CQp7d2ScMUAl8QEJCPe9nDQLS3SYOVkBrW99OmT1lb0L3tuW5LvcOF2nmxuG9pKhKtPCQ5D9imM9Q4Y4IYCUA2IuhL41dGZ9STbc2WP4GHQw9f50R2Ad66Gq_z4kfrpMCJWSi4pxIAII4fo1lLt4Aatpp2pzfllx7eTCn76YUu_hmgc0lyytlOx214A8kahO9Rxq8McJ6MWkh9Oi7us6tfdmZK_4r4sBg9qzGLNDfk4LnYCMd9eofqXubwtlwv8vk66611uW_DM74U09wUoCer5uNvMScX5xVSwCgW5fps-2v2NqcrMjjuddHOBlEsI4vBENYgIyEoMufbwQzDC5kj-7gVMaFtZg5asqJth5yyuE3Ij72gez5BkXWXChV65BaVd9mKnf_RZB-M3uOK3TV_vdkO2qI2piEXezbqlh6ak-j-BvqbuU5WPItFg-pv0Go-cLEfT8YiBOPT9T-WaX3izywwBzkluN-Q-PfpbjdLMK_3qsNP47hxjNbeEz5Ngyo4YqV3dfEv1qRQRUFZRIj1oFlVscxgcWHswU7ChRH53TVtyo0OrOt2bIMhrTyZ8dVhjX_?></g></svg>