<?plantuml 1.2026.2?><svg xmlns="http://www.w3.org/2000/svg" xmlns:xlink="http://www.w3.org/1999/xlink" contentStyleType="text/css" data-diagram-type="DESCRIPTION" height="401px" preserveAspectRatio="none" style="width:1949px;height:401px;background:#FFFFFF;" version="1.1" viewBox="0 0 1949 401" width="1949px" zoomAndPan="magnify"><defs/><g><!--entity U--><g class="entity" data-qualified-name="U" data-source-line="4" id="ent0002"><ellipse cx="72.5239" cy="289.0659" fill="#F1F1F1" rx="8" ry="8" style="stroke:#181818;stroke-width:0.5;"/><path d="M72.5239,297.0659 L72.5239,324.0659 M59.5239,305.0659 L85.5239,305.0659 M72.5239,324.0659 L59.5239,339.0659 M72.5239,324.0659 L85.5239,339.0659" fill="none" style="stroke:#181818;stroke-width:0.5;"/><text fill="#000000" font-family="sans-serif" font-size="14" lengthAdjust="spacing" textLength="133.0479" x="6" y="353.561">Kh&#225;ch / Ng&#432;&#7901;i mua</text></g><!--entity UI--><g class="entity" data-qualified-name="UI" data-source-line="5" id="ent0003"><path d="M422.75,204.0659 L422.75,228.0659 M422.75,216.0659 L439.75,216.0659" fill="none" style="stroke:#181818;stroke-width:0.5;"/><ellipse cx="451.75" cy="216.0659" fill="#F1F1F1" rx="12" ry="12" style="stroke:#181818;stroke-width:0.5;"/><text fill="#000000" font-family="sans-serif" font-size="14" lengthAdjust="spacing" textLength="164.5" x="361" y="245.061">Giao di&#7879;n danh s&#225;ch xe</text><text fill="#000000" font-family="sans-serif" font-size="14" lengthAdjust="spacing" textLength="121.0713" x="361" y="261.3579">(VehicleListPage)</text></g><!--entity DETAIL--><g class="entity" data-qualified-name="DETAIL" data-source-line="6" id="ent0004"><path d="M1204.8931,290.0659 L1204.8931,314.0659 M1204.8931,302.0659 L1221.8931,302.0659" fill="none" style="stroke:#181818;stroke-width:0.5;"/><ellipse cx="1233.8931" cy="302.0659" fill="#F1F1F1" rx="12" ry="12" style="stroke:#181818;stroke-width:0.5;"/><text fill="#000000" font-family="sans-serif" font-size="14" lengthAdjust="spacing" textLength="140.7861" x="1155" y="331.061">Giao di&#7879;n chi ti&#7871;t xe</text><text fill="#000000" font-family="sans-serif" font-size="14" lengthAdjust="spacing" textLength="137.8398" x="1155" y="347.3579">(VehicleDetailPage)</text></g><!--entity C--><g class="entity" data-qualified-name="C" data-source-line="7" id="ent0005"><ellipse cx="860.1631" cy="167.5659" fill="#F1F1F1" rx="12" ry="12" style="stroke:#181818;stroke-width:0.5;"/><polygon fill="#181818" points="856.1631,155.5659,862.1631,150.5659,860.1631,155.5659,862.1631,160.5659,856.1631,155.5659" style="stroke:#181818;stroke-width:1;"/><text fill="#000000" font-family="sans-serif" font-size="14" lengthAdjust="spacing" textLength="120.3262" x="800" y="196.561">VehicleController</text></g><!--entity S--><g class="entity" data-qualified-name="S" data-source-line="8" id="ent0006"><ellipse cx="1225.4473" cy="82.5659" fill="#F1F1F1" rx="12" ry="12" style="stroke:#181818;stroke-width:0.5;"/><polygon fill="#181818" points="1221.4473,70.5659,1227.4473,65.5659,1225.4473,70.5659,1227.4473,75.5659,1221.4473,70.5659" style="stroke:#181818;stroke-width:1;"/><text fill="#000000" font-family="sans-serif" font-size="14" lengthAdjust="spacing" textLength="102.8945" x="1174" y="111.561">VehicleService</text></g><!--entity R--><g class="entity" data-qualified-name="R" data-source-line="9" id="ent0007"><ellipse cx="1533.1128" cy="82.5659" fill="#F1F1F1" rx="12" ry="12" style="stroke:#181818;stroke-width:0.5;"/><line style="stroke:#181818;stroke-width:0.5;" x1="1521.1128" x2="1545.1128" y1="96.5659" y2="96.5659"/><text fill="#000000" font-family="sans-serif" font-size="14" lengthAdjust="spacing" textLength="126.2256" x="1470" y="111.561">VehicleRepository</text></g><!--entity DB--><g class="entity" data-qualified-name="DB" data-source-line="10" id="ent0008"><path d="M1822,78.0659 C1822,68.0659 1877.2881,68.0659 1877.2881,68.0659 C1877.2881,68.0659 1932.5762,68.0659 1932.5762,78.0659 L1932.5762,103.3628 C1932.5762,113.3628 1877.2881,113.3628 1877.2881,113.3628 C1877.2881,113.3628 1822,113.3628 1822,103.3628 L1822,78.0659" fill="#F1F1F1" style="stroke:#181818;stroke-width:0.5;"/><path d="M1822,78.0659 C1822,88.0659 1877.2881,88.0659 1877.2881,88.0659 C1877.2881,88.0659 1932.5762,88.0659 1932.5762,78.0659" fill="none" style="stroke:#181818;stroke-width:0.5;"/><text fill="#000000" font-family="sans-serif" font-size="14" lengthAdjust="spacing" textLength="90.5762" x="1832" y="105.061">C&#417; s&#7903; d&#7919; li&#7879;u</text></g><!--link U to UI--><g class="link" data-entity-1="ent0002" data-entity-2="ent0003" data-link-type="dependency" data-source-line="12" id="lnk9"><path d="M139.19,282.9159 C148.98,278.5859 159.11,274.6159 169,271.5659 C231.78,252.1659 299.7439,242.9008 354.8239,237.9708" fill="none" id="U-to-UI" style="stroke:#181818;stroke-width:1;"/><polygon fill="#181818" points="360.8,237.4359,351.4792,234.2542,355.8199,237.8817,352.1924,242.2223,360.8,237.4359" style="stroke:#181818;stroke-width:1;"/><text fill="#000000" font-family="sans-serif" font-size="13" lengthAdjust="spacing" textLength="160.729" x="170" y="237.6328">1. nh&#7853;p t&#7915; kh&#243;a + b&#7897; l&#7885;c</text></g><!--link UI to U--><g class="link" data-entity-1="ent0003" data-entity-2="ent0002" data-link-type="dependency" data-source-line="21" id="lnk18"><path d="M396.04,265.1259 C376.83,277.0859 353.71,289.4359 331,296.5659 C267.86,316.3859 197.99,320.658 145.03,320.728" fill="none" id="UI-to-U" style="stroke:#181818;stroke-width:1;"/><polygon fill="#181818" points="139.03,320.7359,148.0353,324.724,144.03,320.7293,148.0247,316.724,139.03,320.7359" style="stroke:#181818;stroke-width:1;"/><text fill="#000000" font-family="sans-serif" font-size="13" lengthAdjust="spacing" textLength="145.063" x="177.5" y="292.6328">10. hi&#7875;n th&#7883; danh s&#225;ch</text></g><!--link UI to C--><g class="link" data-entity-1="ent0003" data-entity-2="ent0005" data-link-type="dependency" data-source-line="13" id="lnk10"><path d="M525.19,219.0759 C535.22,217.5059 545.34,215.9659 555,214.5659 C639.91,202.2359 732.5131,190.6838 793.8331,183.2938" fill="none" id="UI-to-C" style="stroke:#181818;stroke-width:1;"/><polygon fill="#181818" points="799.79,182.5759,790.3761,179.6815,794.8259,183.1742,791.3333,187.624,799.79,182.5759" style="stroke:#181818;stroke-width:1;"/><text fill="#000000" font-family="sans-serif" font-size="13" lengthAdjust="spacing" textLength="213.8018" x="556" y="183.6328">2. GET /vehicles?keyword&amp;filters</text></g><!--link C to UI--><g class="link" data-entity-1="ent0005" data-entity-2="ent0003" data-link-type="dependency" data-source-line="20" id="lnk17"><path d="M834.54,199.6659 C817.87,214.3159 794.45,231.6859 770,239.5659 C689.72,265.4359 598.3842,259.7023 531.1042,249.6523" fill="none" id="C-to-UI" style="stroke:#181818;stroke-width:1;"/><polygon fill="#181818" points="525.17,248.7659,533.4803,254.0517,530.1151,249.5046,534.6622,246.1394,525.17,248.7659" style="stroke:#181818;stroke-width:1;"/><text fill="#000000" font-family="sans-serif" font-size="13" lengthAdjust="spacing" textLength="64.2383" x="630.5" y="235.6328">9. 200 OK</text></g><!--link C to S--><g class="link" data-entity-1="ent0005" data-entity-2="ent0006" data-link-type="dependency" data-source-line="14" id="lnk11"><path d="M920.12,163.5459 C996.4,148.0359 1120,122.8559 1125,121.5659 C1141.03,117.4359 1152.5961,114.105 1168.1861,109.205" fill="none" id="C-to-S" style="stroke:#181818;stroke-width:1;"/><polygon fill="#181818" points="1173.91,107.4059,1164.1247,106.2885,1169.1401,108.9051,1166.5235,113.9205,1173.91,107.4059" style="stroke:#181818;stroke-width:1;"/><text fill="#000000" font-family="sans-serif" font-size="13" lengthAdjust="spacing" textLength="154.4702" x="960.5" y="117.6328">3. search/filter(request)</text></g><!--link S to C--><g class="link" data-entity-1="ent0006" data-entity-2="ent0005" data-link-type="dependency" data-source-line="19" id="lnk16"><path d="M1183.85,66.3759 C1166.37,57.3159 1145.32,48.1259 1125,43.5659 C1049.11,26.5459 1018.67,7.0459 950,43.5659 C907.17,66.3459 883.3914,114.3249 871.3114,145.7749" fill="none" id="S-to-C" style="stroke:#181818;stroke-width:1;"/><polygon fill="#181818" points="869.16,151.3759,876.1211,144.4086,870.9528,146.7084,868.653,141.5401,869.16,151.3759" style="stroke:#181818;stroke-width:1;"/><text fill="#000000" font-family="sans-serif" font-size="13" lengthAdjust="spacing" textLength="137.1982" x="969" y="19.6328">8. VehicleResponse[]</text></g><!--link C to S--><g class="link" data-entity-1="ent0005" data-entity-2="ent0006" data-link-type="dependency" data-source-line="25" id="lnk21"><path d="M920.15,189.9159 C975.2,200.3659 1058.5,208.5959 1125,182.5659 C1159.61,169.0159 1185.6759,141.8503 1203.4159,119.4403" fill="none" id="C-to-S-1" style="stroke:#181818;stroke-width:1;"/><polygon fill="#181818" points="1207.14,114.7359,1198.4176,119.3098,1204.0366,118.6563,1204.6902,124.2752,1207.14,114.7359" style="stroke:#181818;stroke-width:1;"/><text fill="#000000" font-family="sans-serif" font-size="13" lengthAdjust="spacing" textLength="153.9561" x="961" y="178.6328">13. getVehicleDetail(id)</text></g><!--link S to C--><g class="link" data-entity-1="ent0006" data-entity-2="ent0005" data-link-type="dependency" data-source-line="30" id="lnk26"><path d="M1173.96,82.8359 C1117.35,76.3159 1023.85,72.0659 950,100.5659 C922.67,111.1159 901.831,129.3869 885.361,147.0569" fill="none" id="S-to-C-1" style="stroke:#181818;stroke-width:1;"/><polygon fill="#181818" points="881.27,151.4459,890.3325,147.5897,884.6792,147.7884,884.4804,142.135,881.27,151.4459" style="stroke:#181818;stroke-width:1;"/><text fill="#000000" font-family="sans-serif" font-size="13" lengthAdjust="spacing" textLength="173.6211" x="951" y="74.6328">18. VehicleDetailResponse</text></g><!--link S to R--><g class="link" data-entity-1="ent0006" data-entity-2="ent0007" data-link-type="dependency" data-source-line="15" id="lnk12"><path d="M1267.15,66.3759 C1284.63,57.3159 1305.68,48.1259 1326,43.5659 C1375.44,32.4759 1390.74,31.7059 1440,43.5659 C1459.01,48.1359 1473.2795,54.3962 1489.3995,63.4562" fill="none" id="S-to-R" style="stroke:#181818;stroke-width:1;"/><polygon fill="#181818" points="1494.63,66.3959,1488.7441,58.4993,1490.2713,63.9462,1484.8244,65.4733,1494.63,66.3959" style="stroke:#181818;stroke-width:1;"/><text fill="#000000" font-family="sans-serif" font-size="13" lengthAdjust="spacing" textLength="111.2681" x="1327.5" y="31.6328">4. query vehicles</text></g><!--link R to S--><g class="link" data-entity-1="ent0007" data-entity-2="ent0006" data-link-type="dependency" data-source-line="18" id="lnk15"><path d="M1469.84,114.5259 C1459.99,117.4459 1449.81,119.9559 1440,121.5659 C1390,129.7659 1376.09,129.1859 1326,121.5659 C1309.81,119.1059 1298.3478,116.3242 1282.9078,111.4142" fill="none" id="R-to-S" style="stroke:#181818;stroke-width:1;"/><polygon fill="#181818" points="1277.19,109.5959,1284.5546,116.1353,1281.9549,111.1112,1286.979,108.5115,1277.19,109.5959" style="stroke:#181818;stroke-width:1;"/><text fill="#000000" font-family="sans-serif" font-size="13" lengthAdjust="spacing" textLength="87.2612" x="1339.5" y="117.6328">7. Vehicle list</text></g><!--link S to R--><g class="link" data-entity-1="ent0006" data-entity-2="ent0007" data-link-type="dependency" data-source-line="26" id="lnk22"><path d="M1277.29,90.5659 C1330.23,90.5659 1407.23,90.5659 1464,90.5659" fill="none" id="S-to-R-1" style="stroke:#181818;stroke-width:1;"/><polygon fill="#181818" points="1470,90.5659,1461,86.5659,1465,90.5659,1461,94.5659,1470,90.5659" style="stroke:#181818;stroke-width:1;"/><text fill="#000000" font-family="sans-serif" font-size="13" lengthAdjust="spacing" textLength="100.1914" x="1333" y="86.6328">14. findById(id)</text></g><!--link R to S--><g class="link" data-entity-1="ent0007" data-entity-2="ent0006" data-link-type="dependency" data-source-line="29" id="lnk25"><path d="M1505.66,114.5659 C1488.37,128.6359 1464.5,145.0759 1440,152.5659 C1391.54,167.3659 1374.71,166.4959 1326,152.5659 C1299.97,145.1159 1278.9343,132.2702 1260.1143,118.1902" fill="none" id="R-to-S-1" style="stroke:#181818;stroke-width:1;"/><polygon fill="#181818" points="1255.31,114.5959,1260.1202,123.1902,1259.3136,117.5912,1264.9126,116.7845,1255.31,114.5959" style="stroke:#181818;stroke-width:1;"/><text fill="#000000" font-family="sans-serif" font-size="13" lengthAdjust="spacing" textLength="112.9756" x="1327" y="148.6328">17. Vehicle detail</text></g><!--link R to DB--><g class="link" data-entity-1="ent0007" data-entity-2="ent0008" data-link-type="dependency" data-source-line="16" id="lnk13"><path d="M1571.37,66.3959 C1587.49,57.3359 1606.99,48.1359 1626,43.5659 C1697.73,26.3059 1720.59,25.0359 1792,43.5659 C1810.69,48.4159 1824.555,55.2011 1839.755,64.7211" fill="none" id="R-to-DB" style="stroke:#181818;stroke-width:1;"/><polygon fill="#181818" points="1844.84,67.9059,1839.3357,59.7387,1840.6025,65.2519,1835.0893,66.5187,1844.84,67.9059" style="stroke:#181818;stroke-width:1;"/><text fill="#000000" font-family="sans-serif" font-size="13" lengthAdjust="spacing" textLength="122.6812" x="1648" y="26.6328">5. SELECT vehicles</text></g><!--link DB to R--><g class="link" data-entity-1="ent0008" data-entity-2="ent0007" data-link-type="dependency" data-source-line="17" id="lnk14"><path d="M1823.65,113.1559 C1813.33,116.6459 1802.46,119.7059 1792,121.5659 C1719.36,134.4659 1698.81,133.5059 1626,121.5659 C1616.19,119.9559 1611.7626,119.1512 1601.9126,116.2312" fill="none" id="DB-to-R" style="stroke:#181818;stroke-width:1;"/><polygon fill="#181818" points="1596.16,114.5259,1603.6519,120.9189,1600.9538,115.947,1605.9257,113.2489,1596.16,114.5259" style="stroke:#181818;stroke-width:1;"/><text fill="#000000" font-family="sans-serif" font-size="13" lengthAdjust="spacing" textLength="103.3145" x="1657.5" y="117.6328">6. danh s&#225;ch xe</text></g><!--link R to DB--><g class="link" data-entity-1="ent0007" data-entity-2="ent0008" data-link-type="dependency" data-source-line="27" id="lnk23"><path d="M1596.02,90.5659 C1660.51,90.5659 1754.45,90.5659 1815.99,90.5659" fill="none" id="R-to-DB-1" style="stroke:#181818;stroke-width:1;"/><polygon fill="#181818" points="1821.99,90.5659,1812.99,86.5659,1816.99,90.5659,1812.99,94.5659,1821.99,90.5659" style="stroke:#181818;stroke-width:1;"/><text fill="#000000" font-family="sans-serif" font-size="13" lengthAdjust="spacing" textLength="164.8486" x="1627" y="86.6328">15. SELECT vehicle detail</text></g><!--link DB to R--><g class="link" data-entity-1="ent0008" data-entity-2="ent0007" data-link-type="dependency" data-source-line="28" id="lnk24"><path d="M1855.69,113.3859 C1839.93,128.8659 1816.82,148.0259 1792,156.5659 C1722.24,180.5759 1696.24,179.1559 1626,156.5659 C1600.36,148.3159 1580.3186,133.9661 1563.0386,118.7161" fill="none" id="DB-to-R-1" style="stroke:#181818;stroke-width:1;"/><polygon fill="#181818" points="1558.54,114.7459,1562.6412,123.7003,1562.2889,118.0544,1567.9347,117.7021,1558.54,114.7459" style="stroke:#181818;stroke-width:1;"/><text fill="#000000" font-family="sans-serif" font-size="13" lengthAdjust="spacing" textLength="104.5205" x="1657" y="152.6328">16. vehicle data</text></g><!--link U to DETAIL--><g class="link" data-entity-1="ent0002" data-entity-2="ent0004" data-link-type="dependency" data-source-line="23" id="lnk19"><path d="M139.22,324.0159 C149.19,324.6559 159.36,325.2159 169,325.5659 C593.6,341.1059 700.37,340.4859 1125,325.5659 C1134.69,325.2259 1138.911,325.0594 1148.961,324.4494" fill="none" id="U-to-DETAIL" style="stroke:#181818;stroke-width:1;"/><polygon fill="#181818" points="1154.95,324.0859,1145.7242,320.6385,1149.9592,324.3888,1146.2089,328.6238,1154.95,324.0859" style="stroke:#181818;stroke-width:1;"/><text fill="#000000" font-family="sans-serif" font-size="13" lengthAdjust="spacing" textLength="106.0566" x="609.5" y="331.6328">11. ch&#7885;n m&#7897;t xe</text></g><!--link DETAIL to U--><g class="link" data-entity-1="ent0004" data-entity-2="ent0002" data-link-type="dependency" data-source-line="32" id="lnk28"><path d="M1154.84,333.7959 C1144.86,335.6159 1134.69,337.2859 1125,338.5659 C703.78,394.2859 590.14,394.8959 169,338.5659 C159.26,337.2659 154.9233,336.6527 144.9333,334.7427" fill="none" id="DETAIL-to-U" style="stroke:#181818;stroke-width:1;"/><polygon fill="#181818" points="139.04,333.6159,147.1287,339.2349,143.951,334.5549,148.631,331.3772,139.04,333.6159" style="stroke:#181818;stroke-width:1;"/><text fill="#000000" font-family="sans-serif" font-size="13" lengthAdjust="spacing" textLength="142.8667" x="591.5" y="372.6328">20. hi&#7875;n th&#7883; chi ti&#7871;t xe</text></g><!--link DETAIL to C--><g class="link" data-entity-1="ent0004" data-entity-2="ent0005" data-link-type="dependency" data-source-line="24" id="lnk20"><path d="M1154.86,326.8159 C1096.49,330.3959 1012.86,327.5159 950,292.5659 C912.3,271.6059 888.2678,232.6952 874.4678,205.0252" fill="none" id="DETAIL-to-C" style="stroke:#181818;stroke-width:1;"/><polygon fill="#181818" points="871.79,199.6559,872.2273,209.4951,874.0215,204.1303,879.3863,205.9246,871.79,199.6559" style="stroke:#181818;stroke-width:1;"/><text fill="#000000" font-family="sans-serif" font-size="13" lengthAdjust="spacing" textLength="145.4058" x="965" y="288.6328">12. GET /vehicles/{id}</text></g><!--link C to DETAIL--><g class="link" data-entity-1="ent0005" data-entity-2="ent0004" data-link-type="dependency" data-source-line="31" id="lnk27"><path d="M898.92,199.6859 C914.33,208.7359 932.59,218.5159 950,225.5659 C1024.55,255.7259 1049.43,244.0559 1125,271.5659 C1136.49,275.7459 1142.9828,278.3042 1154.4628,283.4942" fill="none" id="C-to-DETAIL" style="stroke:#181818;stroke-width:1;"/><polygon fill="#181818" points="1159.93,285.9659,1153.3769,278.6136,1155.374,283.9062,1150.0813,285.9032,1159.93,285.9659" style="stroke:#181818;stroke-width:1;"/><text fill="#000000" font-family="sans-serif" font-size="13" lengthAdjust="spacing" textLength="72.5093" x="1001.5" y="221.6328">19. 200 OK</text></g><?plantuml-src TPFDRjD058NtynHNMQ1Kg4uS_bc06YUgeaOKnGaRO37nt6I6EECmCocaY1KB5gWFm0AXhX42YLszO56fx-4tOVmNEwrOUiuvlkT-7eSuCs0YK6BE3J2XC30YaaGlX5nHHPSGJT_OimDZb9Yk3Gw2IFhY5A5D20rCfA1nn2_F0mujU3Q_-ft4tmGirxG1LCE4JAErP5Hje74eQ6G79F5d2OnA3ZfBlSTNila2kGX270fjdjCvxkNXmN_I0HTWH7Bnr-oaUsYe2Ajyhpy-60o9xMjK54AZi7dvSuWgStat33wg4n5Wfle4fH5cinL7k8gqi6jlCdr463LqIZL2mxiw1vt4tu4byIy8qwxhl4YNa0dixp-nAy5ZS1sGFBdukGAJn3zWmI__KBWDqoJ-2c4IdmN4sbAtPyqT1mxxOsYTvEFrqmLktaMAtPg9qA3InCkilhNUSK0ZLG5lvLfJuTirQhD7_Cmpifwx3jWp2xHy7nbbMgzhnNiE-FrXtnjNgZqle_UTtSzM9DF93nmeyDYrjIdcfVKVRfKHwbKaDRvyNLJEM3noeDDkm_5HkVCa1THsW5jydoGOdiHVQdDBaFctJRsMPc1DPnAM5c1w8qWXbXtSwmnR7mJxM0FdMd9pD3lNg2bOdPjhmSs4PDtDW6LI3PjxWnkmx1rrUgx5jrNjbQdHSsluYc05qAq8viLAZaN_2aI5ihP_YhDp7UVE__CF?></g></svg>