<?plantuml 1.2026.2?><svg xmlns="http://www.w3.org/2000/svg" xmlns:xlink="http://www.w3.org/1999/xlink" contentStyleType="text/css" data-diagram-type="DESCRIPTION" height="89px" preserveAspectRatio="none" style="width:2055px;height:89px;background:#FFFFFF;" version="1.1" viewBox="0 0 2055 89" width="2055px" zoomAndPan="magnify"><defs/><g><!--entity U--><g class="entity" data-qualified-name="U" data-source-line="4" id="ent0002"><ellipse cx="51.5205" cy="14" fill="#F1F1F1" rx="8" ry="8" style="stroke:#181818;stroke-width:0.5;"/><path d="M51.5205,22 L51.5205,49 M38.5205,30 L64.5205,30 M51.5205,49 L38.5205,64 M51.5205,49 L64.5205,64" fill="none" style="stroke:#181818;stroke-width:0.5;"/><text fill="#000000" font-family="sans-serif" font-size="14" lengthAdjust="spacing" textLength="91.041" x="6" y="78.4951">Qu&#7843;n tr&#7883; vi&#234;n</text></g><!--entity UI--><g class="entity" data-qualified-name="UI" data-source-line="5" id="ent0003"><path d="M384.0957,15 L384.0957,39 M384.0957,27 L401.0957,27" fill="none" style="stroke:#181818;stroke-width:0.5;"/><ellipse cx="413.0957" cy="27" fill="#F1F1F1" rx="12" ry="12" style="stroke:#181818;stroke-width:0.5;"/><text fill="#000000" font-family="sans-serif" font-size="14" lengthAdjust="spacing" textLength="147.1914" x="331" y="55.9951">Giao di&#7879;n qu&#7843;n tr&#7883; xe</text><text fill="#000000" font-family="sans-serif" font-size="14" lengthAdjust="spacing" textLength="141.4629" x="331" y="72.292">(AdminVehiclePage)</text></g><!--entity C--><g class="entity" data-qualified-name="C" data-source-line="6" id="ent0004"><ellipse cx="863.5952" cy="35.5" fill="#F1F1F1" rx="12" ry="12" style="stroke:#181818;stroke-width:0.5;"/><polygon fill="#181818" points="859.5952,23.5,865.5952,18.5,863.5952,23.5,865.5952,28.5,859.5952,23.5" style="stroke:#181818;stroke-width:1;"/><text fill="#000000" font-family="sans-serif" font-size="14" lengthAdjust="spacing" textLength="165.1904" x="781" y="64.4951">AdminVehicleController</text></g><!--entity S--><g class="entity" data-qualified-name="S" data-source-line="7" id="ent0005"><ellipse cx="1272.4473" cy="35.5" fill="#F1F1F1" rx="12" ry="12" style="stroke:#181818;stroke-width:0.5;"/><polygon fill="#181818" points="1268.4473,23.5,1274.4473,18.5,1272.4473,23.5,1274.4473,28.5,1268.4473,23.5" style="stroke:#181818;stroke-width:1;"/><text fill="#000000" font-family="sans-serif" font-size="14" lengthAdjust="spacing" textLength="102.8945" x="1221" y="64.4951">VehicleService</text></g><!--entity R--><g class="entity" data-qualified-name="R" data-source-line="8" id="ent0006"><ellipse cx="1612.1128" cy="35.5" fill="#F1F1F1" rx="12" ry="12" style="stroke:#181818;stroke-width:0.5;"/><line style="stroke:#181818;stroke-width:0.5;" x1="1600.1128" x2="1624.1128" y1="49.5" y2="49.5"/><text fill="#000000" font-family="sans-serif" font-size="14" lengthAdjust="spacing" textLength="126.2256" x="1549" y="64.4951">VehicleRepository</text></g><!--entity DB--><g class="entity" data-qualified-name="DB" data-source-line="9" id="ent0007"><path d="M1928,31 C1928,21 1983.2881,21 1983.2881,21 C1983.2881,21 2038.5762,21 2038.5762,31 L2038.5762,56.2969 C2038.5762,66.2969 1983.2881,66.2969 1983.2881,66.2969 C1983.2881,66.2969 1928,66.2969 1928,56.2969 L1928,31" fill="#F1F1F1" style="stroke:#181818;stroke-width:0.5;"/><path d="M1928,31 C1928,41 1983.2881,41 1983.2881,41 C1983.2881,41 2038.5762,41 2038.5762,31" fill="none" style="stroke:#181818;stroke-width:0.5;"/><text fill="#000000" font-family="sans-serif" font-size="14" lengthAdjust="spacing" textLength="90.5762" x="1938" y="57.9951">C&#417; s&#7903; d&#7919; li&#7879;u</text></g><!--link U to UI--><g class="link" data-entity-1="ent0002" data-entity-2="ent0003" data-link-type="dependency" data-source-line="11" id="lnk8"><path d="M97.31,43.5 C156.27,43.5 254.62,43.5 324.91,43.5" fill="none" id="U-to-UI" style="stroke:#181818;stroke-width:1;"/><polygon fill="#181818" points="330.91,43.5,321.91,39.5,325.91,43.5,321.91,47.5,330.91,43.5" style="stroke:#181818;stroke-width:1;"/><text fill="#000000" font-family="sans-serif" font-size="13" lengthAdjust="spacing" textLength="129.2573" x="149.5" y="39.5669">1. t&#7841;o / s&#7917;a / x&#243;a xe</text></g><!--link UI to U--><g class="link" data-entity-1="ent0003" data-entity-2="ent0002" data-link-type="dependency" data-source-line="20" id="lnk17"><path d="M330.82,63.49 C320.87,65.56 310.73,67.33 301,68.5 C224.22,77.73 203.32,80.96 127,68.5 C117.17,66.89 112.6093,65.9839 102.9293,62.9139" fill="none" id="UI-to-U" style="stroke:#181818;stroke-width:1;"/><polygon fill="#181818" points="97.21,61.1,104.5797,67.6336,101.976,62.6115,106.9981,60.0079,97.21,61.1" style="stroke:#181818;stroke-width:1;"/><text fill="#000000" font-family="sans-serif" font-size="13" lengthAdjust="spacing" textLength="172.7578" x="128" y="64.5669">10. c&#7853;p nh&#7853;t danh s&#225;ch xe</text></g><!--link UI to C--><g class="link" data-entity-1="ent0003" data-entity-2="ent0004" data-link-type="dependency" data-source-line="12" id="lnk9"><path d="M478.17,43.5 C560.64,43.5 688.86,43.5 774.88,43.5" fill="none" id="UI-to-C" style="stroke:#181818;stroke-width:1;"/><polygon fill="#181818" points="780.88,43.5,771.88,39.5,775.88,43.5,771.88,47.5,780.88,43.5" style="stroke:#181818;stroke-width:1;"/><text fill="#000000" font-family="sans-serif" font-size="13" lengthAdjust="spacing" textLength="241.3887" x="509" y="39.5669">2. POST/PUT/DELETE /admin/vehicles</text></g><!--link C to UI--><g class="link" data-entity-1="ent0004" data-entity-2="ent0003" data-link-type="dependency" data-source-line="19" id="lnk16"><path d="M780.95,63.95 C770.91,65.82 760.76,67.42 751,68.5 C643.66,80.39 615.23,81.39 508,68.5 C498.27,67.33 494.0042,66.7821 484.0542,64.7121" fill="none" id="C-to-UI" style="stroke:#181818;stroke-width:1;"/><polygon fill="#181818" points="478.18,63.49,486.1766,69.2393,483.0752,64.5084,487.8061,61.407,478.18,63.49" style="stroke:#181818;stroke-width:1;"/><text fill="#000000" font-family="sans-serif" font-size="13" lengthAdjust="spacing" textLength="99.7344" x="580" y="64.5669">9. 200/201/204</text></g><!--link C to S--><g class="link" data-entity-1="ent0004" data-entity-2="ent0005" data-link-type="dependency" data-source-line="13" id="lnk10"><path d="M946.37,43.5 C1028.43,43.5 1146.16,43.5 1214.91,43.5" fill="none" id="C-to-S" style="stroke:#181818;stroke-width:1;"/><polygon fill="#181818" points="1220.91,43.5,1211.91,39.5,1215.91,43.5,1211.91,47.5,1220.91,43.5" style="stroke:#181818;stroke-width:1;"/><text fill="#000000" font-family="sans-serif" font-size="13" lengthAdjust="spacing" textLength="213.4526" x="977" y="39.5669">3. create/update/delete(request)</text></g><!--link S to C--><g class="link" data-entity-1="ent0005" data-entity-2="ent0004" data-link-type="dependency" data-source-line="18" id="lnk15"><path d="M1220.94,61.73 C1211.13,64.54 1200.84,67.01 1191,68.5 C1096.53,82.83 1070.98,79.02 976,68.5 C966.24,67.42 961.9886,66.9186 951.9486,65.0486" fill="none" id="S-to-C" style="stroke:#181818;stroke-width:1;"/><polygon fill="#181818" points="946.05,63.95,954.1654,69.5303,950.9655,64.8655,955.6303,61.6656,946.05,63.95" style="stroke:#181818;stroke-width:1;"/><text fill="#000000" font-family="sans-serif" font-size="13" lengthAdjust="spacing" textLength="176.7632" x="995.5" y="64.5669">8. VehicleResponse / result</text></g><!--link S to R--><g class="link" data-entity-1="ent0005" data-entity-2="ent0006" data-link-type="dependency" data-source-line="14" id="lnk11"><path d="M1324.03,43.5 C1384.07,43.5 1478.23,43.5 1542.93,43.5" fill="none" id="S-to-R" style="stroke:#181818;stroke-width:1;"/><polygon fill="#181818" points="1548.93,43.5,1539.93,39.5,1543.93,43.5,1539.93,47.5,1548.93,43.5" style="stroke:#181818;stroke-width:1;"/><text fill="#000000" font-family="sans-serif" font-size="13" lengthAdjust="spacing" textLength="163.6553" x="1355" y="39.5669">4. validate + save/delete</text></g><!--link R to S--><g class="link" data-entity-1="ent0006" data-entity-2="ent0005" data-link-type="dependency" data-source-line="17" id="lnk14"><path d="M1548.6,62.83 C1538.78,65.18 1528.68,67.21 1519,68.5 C1446.31,78.2 1426.5,79.5 1354,68.5 C1344.16,67.01 1339.638,66.1922 1329.828,63.3822" fill="none" id="R-to-S" style="stroke:#181818;stroke-width:1;"/><polygon fill="#181818" points="1324.06,61.73,1331.6106,68.0537,1328.8667,63.1068,1333.8135,60.363,1324.06,61.73" style="stroke:#181818;stroke-width:1;"/><text fill="#000000" font-family="sans-serif" font-size="13" lengthAdjust="spacing" textLength="127.0674" x="1373" y="64.5669">7. persisted vehicle</text></g><!--link R to DB--><g class="link" data-entity-1="ent0006" data-entity-2="ent0007" data-link-type="dependency" data-source-line="15" id="lnk12"><path d="M1675.26,43.5 C1746.01,43.5 1854.39,43.5 1921.82,43.5" fill="none" id="R-to-DB" style="stroke:#181818;stroke-width:1;"/><polygon fill="#181818" points="1927.82,43.5,1918.82,39.5,1922.82,43.5,1918.82,47.5,1927.82,43.5" style="stroke:#181818;stroke-width:1;"/><text fill="#000000" font-family="sans-serif" font-size="13" lengthAdjust="spacing" textLength="191.0708" x="1706" y="39.5669">5. INSERT / UPDATE / DELETE</text></g><!--link DB to R--><g class="link" data-entity-1="ent0007" data-entity-2="ent0006" data-link-type="dependency" data-source-line="16" id="lnk13"><path d="M1927.56,62.23 C1917.82,64.83 1907.69,67.1 1898,68.5 C1813.11,80.79 1790.02,79.85 1705,68.5 C1695.32,67.21 1691.0552,66.5764 1681.2352,64.2264" fill="none" id="DB-to-R" style="stroke:#181818;stroke-width:1;"/><polygon fill="#181818" points="1675.4,62.83,1683.2219,68.8148,1680.2627,63.9937,1685.0838,61.0345,1675.4,62.83" style="stroke:#181818;stroke-width:1;"/><text fill="#000000" font-family="sans-serif" font-size="13" lengthAdjust="spacing" textLength="123.481" x="1740" y="64.5669">6. k&#7871;t qu&#7843; thao t&#225;c</text></g><?plantuml-src JPA_Rjim4CPtFiL1Ku8YakEcVuS2ZcmK1ehMbQnENMZf6h5HI8Ky2N5Ve4CVeZ2o1GWwTBE73WRw7dgJdluupK0SmFln-7qVMU0N0Z9WrKLEa2cBAIcZXRjKkfHMNe5PVUMz2P5LgufmdXeTgsy88o5aIiQ2zx5gjhSQo3Qx7r2h_PtsG3f8nCfKEfDs3TvR9GrFRtRVDLm_nc_mipwQP5TAVy9SfGKkv0KUz-VdWkyYQmhm7XDXlrcWxR3mFpK0CTfQfTXrOu6Q5AqVcX6MnYdMlUxwaSWaoPLq25xuTmEksVs4hDdzWg9LMtNGz5o814vEth0cU0sdFb2ptHW8MlnUShtP_vRiHN2_nKAcnZuiFiJBO94iW-ditMmvWq2sDeAwL-94sC4nmqzzI2rAmg0gixPaM23XaSNh2XqTYxX38qRFVAXbeLeAde2JzG4MKSTCpnbwviFyVJoBbgmjMKmdxUNGgn0C76Ozz-6osVwX_as0Sdubsc_IOLIhx8KF9Lgd7646W_91JUlofGyFmRhIQCun08kkAcYmrqNsoeVnQ1ICHwUypWun9MsO8xRUREzBq3aN_eDIv-1OHCw1_WC0?></g></svg>